<svg width="101" height="28" viewBox="0 0 101 28" fill="none" xmlns="http://www.w3.org/2000/svg">
<path d="M15.56 19C14.415 19 13.5675 18.7275 13.0175 18.1825C12.4725 17.6325 12.2 16.785 12.2 15.64V12.19C12.2 11.035 12.4725 10.185 13.0175 9.64C13.5625 9.09 14.405 8.82 15.545 8.83H17.36C18.3 8.83 19.0175 9.025 19.5125 9.415C20.0075 9.8 20.295 10.41 20.375 11.245C20.405 11.455 20.365 11.615 20.255 11.725C20.145 11.835 19.985 11.89 19.775 11.89C19.395 11.89 19.175 11.68 19.115 11.26C19.065 10.8 18.905 10.49 18.635 10.33C18.37 10.17 17.945 10.09 17.36 10.09H15.545C15.015 10.085 14.5975 10.145 14.2925 10.27C13.9925 10.395 13.7775 10.6125 13.6475 10.9225C13.5225 11.2275 13.46 11.65 13.46 12.19V15.64C13.46 16.175 13.5225 16.595 13.6475 16.9C13.7775 17.205 13.995 17.4225 14.3 17.5525C14.605 17.6775 15.025 17.74 15.56 17.74H17.36C17.945 17.74 18.37 17.66 18.635 17.5C18.905 17.335 19.065 17.025 19.115 16.57C19.175 16.15 19.395 15.94 19.775 15.94C19.985 15.94 20.145 15.995 20.255 16.105C20.365 16.215 20.405 16.375 20.375 16.585C20.295 17.425 20.0075 18.0375 19.5125 18.4225C19.0175 18.8075 18.3 19 17.36 19H15.56ZM26.0043 19C24.8593 19 24.0118 18.7275 23.4618 18.1825C22.9168 17.6325 22.6443 16.785 22.6443 15.64V12.175C22.6443 11.02 22.9193 10.1725 23.4693 9.6325C24.0193 9.0875 24.8643 8.82 26.0043 8.83H27.8043C28.9543 8.83 29.8018 9.1025 30.3468 9.6475C30.8918 10.1925 31.1643 11.04 31.1643 12.19V15.64C31.1643 16.785 30.8918 17.6325 30.3468 18.1825C29.8018 18.7275 28.9543 19 27.8043 19H26.0043ZM26.0043 17.74H27.8043C28.3393 17.74 28.7593 17.6775 29.0643 17.5525C29.3693 17.4225 29.5843 17.205 29.7093 16.9C29.8393 16.595 29.9043 16.175 29.9043 15.64V12.19C29.9043 11.66 29.8393 11.2425 29.7093 10.9375C29.5843 10.6325 29.3693 10.415 29.0643 10.285C28.7593 10.155 28.3393 10.09 27.8043 10.09H26.0043C25.4743 10.085 25.0568 10.145 24.7518 10.27C24.4468 10.395 24.2293 10.61 24.0993 10.915C23.9693 11.22 23.9043 11.64 23.9043 12.175V15.64C23.9043 16.175 23.9668 16.595 24.0918 16.9C24.2218 17.205 24.4393 17.4225 24.7443 17.5525C25.0493 17.6775 25.4693 17.74 26.0043 17.74ZM34.5474 19C34.1274 19 33.9174 18.79 33.9174 18.37V9.46C33.9174 9.04 34.1274 8.83 34.5474 8.83C34.8224 8.83 35.0524 8.965 35.2374 9.235L38.7774 14.56L38.5074 14.605L42.0774 9.235C42.2474 8.965 42.5024 8.83 42.8424 8.83C43.1824 8.83 43.3524 9.04 43.3524 9.46V18.37C43.3524 18.79 43.1424 19 42.7224 19C42.3024 19 42.0924 18.79 42.0924 18.37V10.72L42.4824 10.855L39.3324 15.49C39.1474 15.76 38.8924 15.895 38.5674 15.895C38.3424 15.895 38.1374 15.76 37.9524 15.49L34.8024 10.855L35.1774 10.96V18.37C35.1774 18.79 34.9674 19 34.5474 19ZM47.1011 19C46.6811 19 46.4711 18.79 46.4711 18.37V9.46C46.4711 9.04 46.6811 8.83 47.1011 8.83H50.6111C51.5261 8.83 52.2261 9.075 52.7111 9.565C53.2011 10.05 53.4461 10.75 53.4461 11.665V12.115C53.4461 13.03 53.2011 13.7325 52.7111 14.2225C52.2261 14.7075 51.5261 14.95 50.6111 14.95H47.7311V18.37C47.7311 18.79 47.5211 19 47.1011 19ZM47.7311 13.69H50.6111C51.1811 13.69 51.5861 13.57 51.8261 13.33C52.0661 13.09 52.1861 12.685 52.1861 12.115V11.665C52.1861 11.1 52.0661 10.6975 51.8261 10.4575C51.5861 10.2125 51.1811 10.09 50.6111 10.09H47.7311V13.69ZM56.3004 19C55.8804 19 55.6704 18.79 55.6704 18.37V9.46C55.6704 9.04 55.8804 8.83 56.3004 8.83H61.6854C62.1054 8.83 62.3154 9.04 62.3154 9.46C62.3154 9.88 62.1054 10.09 61.6854 10.09H56.9304V13.24H59.9154C60.3354 13.24 60.5454 13.45 60.5454 13.87C60.5454 14.29 60.3354 14.5 59.9154 14.5H56.9304V17.74H61.6854C62.1054 17.74 62.3154 17.95 62.3154 18.37C62.3154 18.79 62.1054 19 61.6854 19H56.3004ZM67.7534 19C67.5434 19 67.3859 18.9475 67.2809 18.8425C67.1759 18.7375 67.1234 18.58 67.1234 18.37V10.105H64.2134C64.0034 10.105 63.8459 10.0525 63.7409 9.9475C63.6359 9.8425 63.5834 9.685 63.5834 9.475C63.5834 9.265 63.6359 9.1075 63.7409 9.0025C63.8459 8.8975 64.0034 8.845 64.2134 8.845H71.2934C71.5034 8.845 71.6609 8.8975 71.7659 9.0025C71.8709 9.1075 71.9234 9.265 71.9234 9.475C71.9234 9.685 71.8709 9.8425 71.7659 9.9475C71.6609 10.0525 71.5034 10.105 71.2934 10.105H68.3834V18.37C68.3834 18.57 68.3284 18.725 68.2184 18.835C68.1134 18.945 67.9584 19 67.7534 19ZM80.4623 19.03C80.2973 19.135 80.1398 19.1675 79.9898 19.1275C79.8398 19.0875 79.7123 18.985 79.6073 18.82L77.2823 14.95H75.1823V18.37C75.1823 18.79 74.9723 19 74.5523 19C74.1323 19 73.9223 18.79 73.9223 18.37V9.46C73.9223 9.04 74.1323 8.83 74.5523 8.83H78.0623C78.9773 8.83 79.6773 9.075 80.1623 9.565C80.6523 10.05 80.8973 10.75 80.8973 11.665V12.115C80.8973 12.91 80.7123 13.545 80.3423 14.02C79.9723 14.49 79.4373 14.7825 78.7373 14.8975L80.7023 18.175C80.8923 18.525 80.8123 18.81 80.4623 19.03ZM75.1823 13.69H78.0623C78.6323 13.69 79.0373 13.57 79.2773 13.33C79.5173 13.09 79.6373 12.685 79.6373 12.115V11.665C79.6373 11.1 79.5173 10.6975 79.2773 10.4575C79.0373 10.2125 78.6323 10.09 78.0623 10.09H75.1823V13.69ZM86.2973 19C85.1523 19 84.3048 18.7275 83.7548 18.1825C83.2098 17.6325 82.9373 16.785 82.9373 15.64V12.175C82.9373 11.02 83.2123 10.1725 83.7623 9.6325C84.3123 9.0875 85.1573 8.82 86.2973 8.83H88.0973C89.2473 8.83 90.0948 9.1025 90.6398 9.6475C91.1848 10.1925 91.4573 11.04 91.4573 12.19V15.64C91.4573 16.785 91.1848 17.6325 90.6398 18.1825C90.0948 18.7275 89.2473 19 88.0973 19H86.2973ZM86.2973 17.74H88.0973C88.6323 17.74 89.0523 17.6775 89.3573 17.5525C89.6623 17.4225 89.8773 17.205 90.0023 16.9C90.1323 16.595 90.1973 16.175 90.1973 15.64V12.19C90.1973 11.66 90.1323 11.2425 90.0023 10.9375C89.8773 10.6325 89.6623 10.415 89.3573 10.285C89.0523 10.155 88.6323 10.09 88.0973 10.09H86.2973C85.7673 10.085 85.3498 10.145 85.0448 10.27C84.7398 10.395 84.5223 10.61 84.3923 10.915C84.2623 11.22 84.1973 11.64 84.1973 12.175V15.64C84.1973 16.175 84.2598 16.595 84.3848 16.9C84.5148 17.205 84.7323 17.4225 85.0373 17.5525C85.3423 17.6775 85.7623 17.74 86.2973 17.74Z" fill="white"/>
<rect x="3.5" y="0.5" width="97" height="24" stroke="white"/>
<rect x="0.5" y="3.5" width="97" height="24" stroke="white"/>
</svg>
