<svg width="85" height="25" viewBox="0 0 85 25" fill="none" xmlns="http://www.w3.org/2000/svg">
<g clip-path="url(#clip0_1521_1321)">
<path d="M8.23761 0L8.72481 1.50463H10.3115L9.02875 2.43056L9.52041 3.93073L8.23761 3.00481L6.95481 3.93073L7.44201 2.43056L6.15921 1.50463H7.74595L8.23761 0Z" fill="white"/>
<path d="M13.4269 3.2627L13.7666 4.29546H14.8527L13.9767 4.93203L14.3119 5.9648L13.4269 5.32377L12.5509 5.9648L12.8861 4.93203L12.0056 4.29546H13.0917L13.4269 3.2627Z" fill="white"/>
<path d="M3.1377 3.2627L3.47293 4.29546H4.55906L3.683 4.93203L4.01823 5.9648L3.1377 5.32377L2.25717 5.9648L2.5924 4.93203L1.71634 4.29546H2.80247L3.1377 3.2627Z" fill="white"/>
<path d="M16.435 9.13447C12.2425 8.9386 9.3193 6.3834 8.23763 5.27051C7.1515 6.3834 4.21492 8.9386 0.0357598 9.13447C-0.11621 11.6452 0.219017 14.1603 1.01909 16.5419C1.96219 19.3998 3.97802 23.1614 8.23763 24.9999C12.4928 23.1703 14.4952 19.4087 15.4562 16.5419C16.2562 14.1603 16.5915 11.6452 16.435 9.13447ZM7.45097 13.546C7.27218 13.6306 7.1068 13.7463 6.96824 13.8887C6.27991 14.5832 6.27991 15.6961 6.96824 16.3905C7.1068 16.5285 7.27218 16.6443 7.45097 16.7288V18.7988C5.42173 18.367 4.12552 16.3772 4.55908 14.3562C4.86749 12.9138 6.00279 11.7832 7.45097 11.476V13.546ZM10.8792 17.8061C10.3652 18.3225 9.70816 18.6742 8.99301 18.8211V16.7288C9.1718 16.6443 9.33717 16.5285 9.4802 16.3905C10.173 15.6872 10.1596 14.5609 9.45786 13.8709C9.32376 13.7374 9.16733 13.6261 8.99301 13.546V11.476C11.0267 11.8855 12.3363 13.862 11.9251 15.883C11.7776 16.6131 11.4111 17.2808 10.8792 17.8061Z" fill="white"/>
<g opacity="0.28">
<path opacity="0.28" d="M7.74595 1.50463H6.15921L7.44201 2.43056L6.95481 3.93073L8.23761 3.00481V0L7.74595 1.50463Z" fill="white"/>
<path opacity="0.28" d="M2.25717 5.9648L3.1377 5.32377L4.01823 5.9648L3.683 4.93203L4.55906 4.29546H3.47293L3.1377 3.2627L2.80247 4.29546H1.71634L2.5924 4.93203L2.25717 5.9648Z" fill="white"/>
<path opacity="0.28" d="M0.0357598 9.1349C-0.11621 11.6456 0.219017 14.1607 1.01909 16.5423C1.96219 19.4002 3.97802 23.1618 8.23763 25.0003V5.27539C7.13809 6.38828 4.22832 8.93903 0.0357598 9.1349ZM7.45097 13.5464C7.27218 13.631 7.1068 13.7467 6.96824 13.8892C6.27991 14.5836 6.27991 15.6965 6.96824 16.391C7.1068 16.529 7.27218 16.6447 7.45097 16.7293V18.7993C5.42173 18.3674 4.12552 16.3776 4.55908 14.3566C4.86749 12.9143 6.00279 11.7836 7.45097 11.4764V13.5464Z" fill="white"/>
</g>
<path d="M34.6579 7.95045C36.6916 7.95045 38.1845 8.5158 39.1276 9.64204C40.0707 10.7683 40.3613 12.2507 40.0216 14.0936L39.4763 17.2097C38.8282 20.8199 36.2715 22.7386 32.1013 22.7386H26.9433C26.2728 22.7386 26.0493 22.5115 26.2102 21.8482L28.5166 8.78289C28.6641 8.13741 28.8965 7.89258 29.5625 7.89258L34.6579 7.95045ZM35.9139 13.8577C36.1866 12.3575 35.5161 11.6052 33.8802 11.6052H32.1683L30.8274 19.1417H32.5482C34.1618 19.1417 35.1049 18.3894 35.3776 16.8847L35.9139 13.8577Z" fill="white"/>
<path d="M47.7541 11.605C48.362 11.605 48.5318 11.8098 48.4246 12.3974L48.1117 14.178C48.0044 14.7835 47.7765 14.9927 47.1686 14.9927H46.373C46.0422 14.9838 45.7115 15.0149 45.3852 15.0773C45.3226 15.0773 45.2824 15.1173 45.26 15.2019L44.0666 21.9772C43.9638 22.5648 43.7091 22.7696 43.1012 22.7696H40.8172C40.2093 22.7696 40.0439 22.5648 40.1467 21.9772L41.6575 13.5192C41.6843 12.9004 42.1357 12.3841 42.7481 12.2683C44.156 11.8276 45.6265 11.6006 47.106 11.6006H47.7541V11.605Z" fill="white"/>
<path d="M52.6395 11.9168C53.2473 11.9168 53.4127 12.126 53.3099 12.7092L51.674 21.9773C51.5667 22.565 51.3164 22.7697 50.7086 22.7697H48.4246C47.8167 22.7697 47.6513 22.565 47.7541 21.9773L49.39 12.7092C49.4928 12.126 49.7431 11.9168 50.3555 11.9168H52.6395ZM52.7646 7.70117C53.958 7.70117 54.2754 8.0751 54.043 9.24587L53.9983 9.4729C53.7703 10.6437 53.3725 11.0176 52.1791 11.0176H51.1287C49.9353 11.0176 49.6224 10.6437 49.8504 9.4729V9.24587C50.0783 8.0751 50.5208 7.70117 51.6919 7.70117H52.7646Z" fill="white"/>
<path d="M59.0937 7.34473C59.7016 7.34473 59.867 7.53169 59.7641 8.13711L59.1339 11.7295C59.6077 11.6538 60.0815 11.6138 60.5598 11.6049C63.6885 11.6049 64.9803 13.3855 64.4573 16.3413L64.0595 18.5983C63.5366 21.6654 61.6057 23.0855 58.1685 23.0855C56.7918 23.1433 55.4196 22.903 54.1457 22.3732C53.4976 22.0393 53.4127 21.8746 53.5602 21.1401L55.8576 8.13711C55.9604 7.53169 56.2152 7.34473 56.8231 7.34473H59.0937ZM60.6223 15.9674C60.7251 15.2774 60.3899 14.9436 59.6166 14.9436C59.2457 14.9346 58.8791 14.9836 58.526 15.0905L57.7528 19.4931C57.7483 19.5331 57.7617 19.5687 57.793 19.5954C58.0701 19.6756 58.3607 19.7112 58.6512 19.7023C59.5094 19.7023 60.0144 19.3283 60.1619 18.5538L60.6223 15.9674Z" fill="white"/>
<path d="M68.8197 21.9775C68.7169 22.5651 68.4621 22.7699 67.8543 22.7699H65.5703C64.9624 22.7699 64.797 22.5651 64.8998 21.9775L67.3537 8.11534C67.3581 7.66574 67.7291 7.30516 68.1806 7.30961C68.2252 7.30961 68.2744 7.31406 68.3191 7.32297H70.6076C71.2155 7.32297 71.3809 7.53219 71.278 8.11534L68.8197 21.9775Z" fill="white"/>
<path d="M71.6446 16.0256C72.1452 13.2078 74.2861 11.623 77.6161 11.623C80.7448 11.623 82.5014 12.9986 82.1662 15.4826C81.8533 17.4056 80.1727 18.5096 77.4909 18.5096C76.7579 18.5096 75.9802 18.4696 75.122 18.385L75.0415 18.8301C74.894 19.7204 75.2695 20.1656 76.1724 20.1656C76.8607 20.1834 77.5222 19.9074 77.996 19.4133C78.3938 18.9948 78.6039 18.888 79.2117 19.2041L80.575 19.8896C81.0756 20.1656 81.1382 20.5618 80.7627 21.1004C79.7749 22.4359 78.0809 23.1081 75.6673 23.1081C72.0915 23.1081 70.7238 21.1227 71.2468 18.2114L71.6446 16.0256ZM77.2004 14.3786C76.4048 14.3118 75.6986 14.8816 75.6047 15.6695L75.5421 15.901C76.0204 15.9633 76.5076 15.9989 76.9903 16.0034C77.8038 16.0034 78.2686 15.7541 78.3312 15.2333C78.3938 14.7124 78.0586 14.3608 77.2004 14.3608V14.3786Z" fill="white"/>
<path d="M84.4949 7.66123C84.8346 7.99955 85.0044 8.40909 85.0044 8.89431C85.0044 9.37953 84.8346 9.78908 84.4949 10.1274C84.1552 10.4657 83.744 10.6349 83.2568 10.6349C82.7696 10.6349 82.3539 10.4657 82.0142 10.1274C81.6745 9.78908 81.5047 9.37953 81.5047 8.89431C81.5047 8.40909 81.6745 7.99955 82.0142 7.66123C82.3539 7.32291 82.7696 7.1582 83.2568 7.1582C83.744 7.1582 84.1552 7.32736 84.4949 7.66123ZM84.1329 9.85585C84.3653 9.60211 84.4815 9.2816 84.4815 8.89877C84.4815 8.51593 84.3653 8.19987 84.1329 7.95058C83.9004 7.70129 83.6099 7.57665 83.2568 7.57665C82.9037 7.57665 82.6042 7.70129 82.3718 7.95503C82.1394 8.20877 82.0232 8.52483 82.0232 8.90767C82.0232 9.2905 82.1394 9.61102 82.3718 9.8603C82.6042 10.114 82.8992 10.2387 83.2568 10.2387C83.6144 10.2387 83.9004 10.1096 84.1329 9.85585ZM82.5104 9.66443V8.18206C82.5104 8.07523 82.5595 8.0129 82.6623 7.9951C82.8411 7.96839 83.0154 7.95948 83.1898 7.95948C83.7351 7.95948 84.0077 8.17316 84.0077 8.60051C84.0077 8.88096 83.887 9.07683 83.6457 9.17476L83.9943 9.69114C84.0569 9.78018 84.0345 9.82914 83.9228 9.82914H83.6546C83.5473 9.82914 83.4624 9.78018 83.4043 9.68669L83.1272 9.23708L83.0691 9.22818V9.66889C83.0691 9.77572 83.0154 9.83359 82.9037 9.83359H82.6668C82.5595 9.83359 82.5014 9.78018 82.5014 9.66889L82.5104 9.66443ZM83.0736 8.32006V8.88541C83.1004 8.88541 83.1406 8.88986 83.1942 8.88986C83.2836 8.88986 83.3507 8.87206 83.3998 8.83199C83.449 8.79193 83.4714 8.71625 83.4714 8.60941C83.4714 8.41354 83.3775 8.31561 83.1942 8.31561C83.1406 8.31561 83.1004 8.31561 83.0736 8.32006Z" fill="white"/>
</g>
<defs>
<clipPath id="clip0_1521_1321">
<rect width="85" height="25" fill="white"/>
</clipPath>
</defs>
</svg>
