<svg width="176" height="82" viewBox="0 0 176 82" fill="none" xmlns="http://www.w3.org/2000/svg">
<g clip-path="url(#clip0_1796_1877)">
<path d="M67.0703 81.9993C68.0578 81.5773 68.7825 81.1155 69.2604 80.606C69.7382 80.0964 70.009 79.4037 70.0806 78.5279V47.5719C70.1125 47.1499 69.9532 46.306 69.6108 45.04C69.2604 43.7741 68.4162 42.4365 67.0783 41.0352C68.1693 41.8473 69.125 42.4444 69.9532 42.8266C70.7814 43.2167 71.6495 43.4078 72.5653 43.4078H72.9874C73.9033 43.3043 74.7315 43.0575 75.4642 42.6674C76.2048 42.2772 77.0728 41.911 78.0763 41.5606C79.0797 41.2103 80.4415 41.0352 82.1617 41.0352C85.6419 41.0352 88.6044 42.2533 91.0414 44.6976C93.4862 47.142 94.7047 50.0879 94.7047 53.5274C94.7047 56.967 93.4862 59.9129 91.0414 62.3572C88.5965 64.8015 85.6339 66.0197 82.1617 66.0197C80.4017 66.0197 78.8249 65.6774 77.4153 64.9926C76.0057 64.3079 74.8111 63.3684 73.8316 62.1741V78.512C73.8316 79.3878 74.0864 80.0805 74.5961 80.5901C75.1058 81.0996 75.8544 81.5614 76.8339 81.9834H67.0783L67.0703 81.9993ZM82.1538 65.2872C84.75 65.0404 86.7966 63.8381 88.2938 61.6725C89.7831 59.5148 90.5317 56.7998 90.5317 53.5274C90.5317 50.2551 89.7353 47.5799 88.1346 45.3824C86.5338 43.1849 84.5588 41.9826 82.2015 41.7677H81.6759C80.2345 41.7677 78.809 42.1578 77.4073 42.9301C75.9977 43.7024 74.8032 44.8489 73.8236 46.3537V60.8524C74.8032 62.3652 76.0057 63.4799 77.4073 64.1964C78.809 64.921 80.2026 65.2793 81.5724 65.2793H82.1538V65.2872Z" fill="white"/>
<path d="M125.492 66.0194C124.823 66.0194 124.194 65.7726 123.597 65.279C122.999 64.7853 122.649 63.8219 122.546 62.3808C122.052 62.9461 121.654 63.3522 121.335 63.591C120.634 64.3315 119.766 64.9207 118.755 65.3586C117.735 65.7965 116.541 66.0194 115.171 66.0194C114.645 66.0194 114.08 65.9876 113.483 65.9159C111.404 65.5974 109.74 64.849 108.474 63.6468C107.207 62.4525 106.578 61.083 106.578 59.5384C106.578 59.1881 106.61 58.8139 106.682 58.4317C107.351 56.0033 108.696 54.3233 110.719 53.3679C112.742 52.4204 114.749 51.8392 116.756 51.6322C117.56 51.5605 118.564 51.3695 119.758 51.051C120.953 50.7325 121.885 50.1035 122.554 49.156C122.832 48.7022 122.976 48.1051 122.976 47.3646C122.976 46.6241 122.8 45.7563 122.45 44.8645C122.1 43.9728 121.526 43.2085 120.738 42.5715C119.949 41.9425 118.898 41.624 117.6 41.624H117.393C116.724 41.6559 115.959 41.9027 115.099 42.3645C114.239 42.8263 113.467 43.6066 112.782 44.7133C112.097 45.82 111.755 47.3726 111.755 49.379V49.7452L107.797 48.113C108.641 45.5493 110.05 43.734 112.041 42.6591C114.024 41.5842 115.824 41.0508 117.449 41.0508H117.974C119.91 41.0508 121.51 41.4011 122.769 42.1018C124.035 42.8024 124.879 43.7021 125.301 44.7929C125.508 45.2467 125.62 45.7244 125.62 46.2181C125.62 47.3089 125.086 48.3678 124.011 49.4108C122.936 50.4459 121.136 51.3535 118.603 52.1258C116.915 52.5797 115.298 53.2405 113.754 54.1004C112.209 54.9603 111.237 56.4094 110.855 58.4476V59.1881C110.855 59.8569 110.966 60.6372 111.197 61.5369C111.428 62.4286 111.89 63.2327 112.591 63.9334C113.292 64.634 114.295 65.056 115.601 65.1993H116.127C118.269 65.1993 120.133 64.2678 121.717 62.4047C123.262 60.6849 124.425 59.3314 125.198 58.3441L126.36 57.0782V60.1913C126.36 61.0034 126.416 61.9986 126.519 63.1929C126.87 64.2439 127.483 64.7774 128.367 64.7774C127.348 65.6213 126.4 66.0433 125.516 66.0433L125.492 66.0194Z" fill="white"/>
<path d="M152.274 66.0199H130.127L147.209 41.6643H135.295C134.555 41.6325 133.782 41.927 132.978 42.556C132.174 43.193 131.537 44.3873 131.083 46.1389V41.0273H152.274L135.192 65.4307H147.265C148.253 65.4307 149.224 64.953 150.188 64.0055C151.151 63.058 151.844 61.5134 152.266 59.3637V66.0039L152.274 66.0199Z" fill="white"/>
<path d="M173.148 66.0194C172.479 66.0194 171.85 65.7726 171.253 65.279C170.656 64.7853 170.305 63.8219 170.202 62.3808C169.708 62.9461 169.31 63.3522 168.991 63.591C168.29 64.3315 167.422 64.9207 166.411 65.3586C165.392 65.7965 164.197 66.0194 162.827 66.0194C162.302 66.0194 161.736 65.9876 161.139 65.9159C159.06 65.5974 157.396 64.849 156.13 63.6468C154.864 62.4525 154.234 61.083 154.234 59.5384C154.234 59.1881 154.266 58.8139 154.338 58.4317C155.007 56.0033 156.353 54.3233 158.376 53.3679C160.398 52.4204 162.405 51.8392 164.412 51.6322C165.216 51.5605 166.22 51.3695 167.414 51.051C168.609 50.7325 169.541 50.1035 170.21 49.156C170.488 48.7022 170.632 48.1051 170.632 47.3646C170.632 46.6241 170.457 45.7563 170.106 44.8645C169.756 43.9728 169.182 43.2085 168.394 42.5715C167.606 41.9425 166.554 41.624 165.256 41.624H165.049C164.38 41.6559 163.616 41.9027 162.756 42.3645C161.896 42.8263 161.123 43.6066 160.438 44.7133C159.753 45.82 159.411 47.3726 159.411 49.379V49.7452L155.453 48.113C156.297 45.5493 157.707 43.734 159.698 42.6591C161.681 41.5842 163.48 41.0508 165.105 41.0508H165.631C167.566 41.0508 169.166 41.4011 170.425 42.1018C171.691 42.8024 172.535 43.7021 172.957 44.7929C173.164 45.2467 173.276 45.7244 173.276 46.2181C173.276 47.3089 172.742 48.3678 171.667 49.4108C170.592 50.4459 168.792 51.3535 166.26 52.1258C164.571 52.5797 162.955 53.2405 161.41 54.1004C159.865 54.9603 158.893 56.4094 158.511 58.4476V59.1881C158.511 59.8569 158.622 60.6372 158.853 61.5369C159.084 62.4286 159.546 63.2327 160.247 63.9334C160.948 64.634 161.951 65.056 163.257 65.1993H163.783C165.925 65.1993 167.789 64.2678 169.374 62.4047C170.919 60.6849 172.081 59.3314 172.854 58.3441L174.016 57.0782V60.1913C174.016 61.0034 174.072 61.9986 174.176 63.1929C174.526 64.2439 175.139 64.7774 176.023 64.7774C175.004 65.6213 174.056 66.0433 173.172 66.0433L173.148 66.0194Z" fill="white"/>
<path d="M131.929 78.3789L133.323 81.922H132.956L132.526 80.8153H130.91L130.479 81.922H130.121L131.547 78.3789H131.921H131.929ZM132.415 80.5366L131.73 78.7213L131.021 80.5366H132.415Z" fill="white"/>
<path d="M136.842 78.3789C137.002 78.3789 137.145 78.4028 137.272 78.4426C137.4 78.4904 137.511 78.5541 137.607 78.6416C137.702 78.7292 137.774 78.8327 137.822 78.9601C137.87 79.0875 137.894 79.2308 137.894 79.3901C137.894 79.5493 137.87 79.6926 137.822 79.82C137.774 79.9474 137.702 80.0509 137.607 80.1385C137.511 80.2261 137.408 80.2898 137.272 80.3375C137.145 80.3853 137.002 80.4092 136.842 80.4092H135.608V81.9299H135.273V78.3869H136.85L136.842 78.3789ZM136.771 80.1146C137.002 80.1146 137.193 80.0509 137.344 79.9315C137.487 79.8121 137.559 79.6289 137.559 79.3821C137.559 79.1353 137.487 78.9522 137.344 78.8327C137.201 78.7133 137.01 78.6576 136.771 78.6576H135.608V80.1066H136.771V80.1146Z" fill="white"/>
<path d="M141.136 78.3789L142.53 81.922H142.163L141.733 80.8153H140.117L139.686 81.922H139.328L140.754 78.3789H141.128H141.136ZM141.622 80.5366L140.937 78.7213L140.228 80.5366H141.622Z" fill="white"/>
<path d="M146.105 78.3791C146.249 78.3791 146.392 78.395 146.519 78.4348C146.655 78.4746 146.766 78.5303 146.862 78.602C146.957 78.6736 147.037 78.7692 147.093 78.8886C147.156 79.0081 147.18 79.1434 147.18 79.3026C147.18 79.5256 147.125 79.7246 147.005 79.8839C146.886 80.0511 146.718 80.1546 146.487 80.2023C146.599 80.2262 146.703 80.2581 146.774 80.3058C146.846 80.3536 146.91 80.4093 146.957 80.473C147.005 80.5447 147.037 80.6243 147.061 80.7119C147.085 80.8074 147.093 80.903 147.101 81.0065C147.101 81.0702 147.101 81.1418 147.109 81.2215C147.109 81.3091 147.117 81.3966 147.133 81.4842C147.141 81.5718 147.156 81.6514 147.18 81.731C147.204 81.8107 147.228 81.8664 147.268 81.9142H146.894C146.894 81.9142 146.854 81.8425 146.846 81.7947C146.83 81.747 146.822 81.6992 146.822 81.6435C146.822 81.5877 146.814 81.5399 146.806 81.4922C146.806 81.4444 146.806 81.3966 146.798 81.3648C146.79 81.2374 146.782 81.11 146.766 80.9906C146.75 80.8711 146.718 80.7597 146.671 80.6562C146.623 80.5606 146.551 80.481 146.464 80.4173C146.376 80.3536 146.249 80.3297 146.089 80.3377H144.807V81.9142H144.473V78.3711H146.097L146.105 78.3791ZM146.081 80.059C146.185 80.059 146.28 80.0431 146.376 80.0113C146.472 79.9794 146.551 79.9316 146.623 79.8759C146.695 79.8122 146.75 79.7405 146.79 79.6609C146.83 79.5813 146.854 79.4778 146.854 79.3743C146.854 79.1593 146.79 78.9842 146.663 78.8568C146.535 78.7294 146.344 78.6657 146.089 78.6657H144.831V80.059H146.089H146.081Z" fill="white"/>
<path d="M151.807 78.3789V78.6655H150.573V81.922H150.238V78.6655H149.004V78.3789H151.807Z" fill="white"/>
<path d="M154.252 78.3789L155.43 81.492L156.649 78.3789H157.142V81.922H156.808V78.8566H156.8L155.589 81.922H155.271L154.1 78.8566H154.092V81.922H153.758V78.3789H154.252Z" fill="white"/>
<path d="M161.896 78.3789V78.6655H159.786V79.9474H161.761V80.234H159.786V81.6354H161.92V81.922H159.443V78.3789H161.888H161.896Z" fill="white"/>
<path d="M164.325 78.3789L166.396 81.3806H166.404V78.3789H166.746V81.922H166.372L164.302 78.9203H164.294V81.922H163.951V78.3789H164.325Z" fill="white"/>
<path d="M171.501 78.3789V78.6655H170.266V81.922H169.932V78.6655H168.697V78.3789H171.501Z" fill="white"/>
<path d="M173.65 81.2126C173.714 81.34 173.794 81.4355 173.897 81.5072C174.001 81.5789 174.128 81.6346 174.264 81.6664C174.407 81.6983 174.558 81.7142 174.726 81.7142C174.821 81.7142 174.917 81.6983 175.028 81.6744C175.14 81.6505 175.243 81.6027 175.331 81.547C175.418 81.4913 175.506 81.4117 175.562 81.3241C175.625 81.2285 175.657 81.125 175.657 80.9897C175.657 80.8941 175.633 80.8065 175.586 80.7349C175.538 80.6632 175.482 80.5995 175.41 80.5518C175.339 80.504 175.259 80.4642 175.171 80.4323C175.084 80.4005 175.004 80.3766 174.917 80.3527L174.128 80.1616C174.025 80.1377 173.929 80.0979 173.826 80.0661C173.73 80.0263 173.642 79.9705 173.571 79.9068C173.499 79.8431 173.443 79.7635 173.396 79.66C173.348 79.5565 173.324 79.4451 173.324 79.3097C173.324 79.2221 173.34 79.1186 173.372 79.0071C173.404 78.8877 173.467 78.7842 173.555 78.6807C173.642 78.5772 173.77 78.4896 173.929 78.418C174.088 78.3463 174.295 78.3145 174.542 78.3145C174.718 78.3145 174.885 78.3383 175.044 78.3861C175.203 78.4339 175.347 78.5055 175.466 78.5931C175.586 78.6887 175.681 78.8001 175.753 78.9355C175.825 79.0708 175.856 79.2301 175.856 79.4132H175.514C175.514 79.2778 175.474 79.1584 175.418 79.0549C175.363 78.9514 175.291 78.8718 175.203 78.8001C175.116 78.7364 175.012 78.6807 174.901 78.6489C174.789 78.617 174.67 78.6011 174.542 78.6011C174.431 78.6011 174.319 78.617 174.208 78.6409C174.104 78.6648 174.009 78.7046 173.929 78.7603C173.849 78.8161 173.786 78.8877 173.73 78.9753C173.682 79.0629 173.658 79.1743 173.658 79.3097C173.658 79.3893 173.674 79.4689 173.698 79.5247C173.73 79.5884 173.77 79.6361 173.818 79.6839C173.865 79.7317 173.921 79.7635 173.993 79.7874C174.057 79.8113 174.128 79.8352 174.2 79.8511L175.068 80.0661C175.195 80.0979 175.315 80.1377 175.426 80.1855C175.538 80.2333 175.633 80.297 175.721 80.3686C175.809 80.4403 175.872 80.5279 175.92 80.6314C175.968 80.7349 175.992 80.8623 175.992 81.0056C175.992 81.0454 175.992 81.1011 175.976 81.1648C175.968 81.2365 175.952 81.3002 175.912 81.3798C175.872 81.4594 175.832 81.5311 175.777 81.6027C175.721 81.6824 175.641 81.7461 175.538 81.8097C175.434 81.8734 175.315 81.9212 175.164 81.961C175.012 82.0008 174.837 82.0168 174.622 82.0168C174.407 82.0168 174.224 81.9929 174.041 81.9451C173.857 81.8973 173.706 81.8257 173.587 81.7222C173.459 81.6266 173.364 81.4992 173.3 81.34C173.228 81.1808 173.204 80.9976 173.212 80.7827H173.547C173.547 80.9658 173.571 81.1171 173.634 81.2365L173.65 81.2126Z" fill="white"/>
<path d="M26.582 32.6829C27.6014 32.2609 28.358 31.7991 28.8517 31.2895C29.3455 30.78 29.5923 30.0873 29.5923 29.2115V12.5471C29.5923 11.6713 29.3455 10.9866 28.8517 10.493C28.358 9.99931 27.6014 9.56141 26.582 9.17127C29.8472 8.78114 32.1169 8.29546 33.3831 7.69831V11.7032C33.6618 11.321 34.1317 10.8114 34.7847 10.1745C35.4298 9.54548 36.274 8.96426 37.3172 8.43081C38.3525 7.90532 39.5551 7.64258 40.9328 7.64258L41.6734 7.69831C43.2184 7.87347 44.4528 8.27157 45.3607 8.88464C46.2765 9.49771 46.8738 10.1187 47.1525 10.7557L43.7281 13.9166C43.6564 12.5471 43.4175 11.4962 43.0193 10.7796C42.6132 10.063 42.1035 9.57733 41.4903 9.33051C40.877 9.08369 40.2718 8.96426 39.6745 8.96426C39.0056 8.96426 38.4401 9.03592 37.9862 9.17923C36.8633 9.56937 35.8758 10.1426 35.0316 10.9149C34.1875 11.6872 33.638 12.356 33.399 12.9213V29.2115C33.399 30.0873 33.6459 30.7879 34.1397 31.2895C34.6334 31.7991 35.3661 32.2609 36.3536 32.6829H26.598H26.582Z" fill="white"/>
<path d="M59.9356 32.6838C56.4872 32.6838 53.5406 31.4656 51.0798 29.0213C48.619 26.577 47.3926 23.639 47.3926 20.1915C47.3926 16.744 48.619 13.806 51.0798 11.3617C53.5406 8.9174 56.4952 7.69922 59.9356 7.69922C62.9618 7.69922 65.4147 8.71038 67.318 10.7327C69.2134 12.755 70.1611 15.0481 70.1611 17.6118L51.709 17.6596C51.6054 18.4319 51.5497 19.2759 51.5497 20.1915C51.5497 23.424 52.3461 26.147 53.9468 28.3604C55.5475 30.5739 57.5225 31.7841 59.8798 31.9991H60.3577C61.7593 31.9991 63.1291 31.6567 64.4431 30.972C65.7571 30.2872 66.9119 29.2761 67.8994 27.9385L68.3215 28.5675C67.1986 29.9051 66.1075 30.8605 65.0563 31.4417C64.0051 32.0229 63.0415 32.3733 62.1814 32.4927C61.3213 32.6121 60.5727 32.6758 59.9435 32.6758L59.9356 32.6838ZM66.4181 17.0306V16.5609C66.4181 16.107 66.3624 15.4303 66.2588 14.5306C66.1553 13.6388 65.8925 12.7152 65.4704 11.7598C65.0483 10.8044 64.3953 10.0002 63.5193 9.33142C62.6433 8.66261 61.4248 8.32821 59.8798 8.32821C57.7376 8.32821 55.9696 9.15625 54.5839 10.8044C53.1902 12.4605 52.2744 14.5306 51.8125 17.0226H66.4181V17.0306Z" fill="white"/>
<path d="M84.6309 32.6838C81.1825 32.6838 78.2359 31.4656 75.7751 29.0213C73.3143 26.577 72.0879 23.639 72.0879 20.1915C72.0879 16.744 73.3143 13.806 75.7751 11.3617C78.2359 8.9174 81.1905 7.69922 84.6309 7.69922C87.6571 7.69922 90.11 8.71038 92.0133 10.7327C93.9087 12.755 94.8564 15.0481 94.8564 17.6118L76.4043 17.6596C76.3007 18.4319 76.245 19.2759 76.245 20.1915C76.245 23.424 77.0414 26.147 78.6421 28.3604C80.2428 30.5739 82.2178 31.7841 84.5751 31.9991H85.053C86.4546 31.9991 87.8244 31.6567 89.1384 30.972C90.4524 30.2872 91.6072 29.2761 92.5947 27.9385L93.0168 28.5675C91.8939 29.9051 90.8028 30.8605 89.7516 31.4417C88.7004 32.0229 87.7368 32.3733 86.8767 32.4927C86.0166 32.6121 85.268 32.6758 84.6388 32.6758L84.6309 32.6838ZM91.1134 17.0306V16.5609C91.1134 16.107 91.0577 15.4303 90.9541 14.5306C90.8506 13.6309 90.5878 12.7152 90.1657 11.7598C89.7436 10.8123 89.0906 10.0002 88.2146 9.33142C87.3386 8.66261 86.1201 8.32821 84.5751 8.32821C82.4329 8.32821 80.6649 9.15625 79.2792 10.8044C77.8855 12.4605 76.9697 14.5306 76.5078 17.0226H91.1134V17.0306Z" fill="white"/>
<path d="M114.52 32.6836C115.539 32.2616 116.296 31.7999 116.782 31.2903C117.276 30.7807 117.522 30.088 117.522 29.2122V20.1993C117.522 18.0177 117.371 16.0591 117.076 14.3234C116.782 12.5797 116.137 11.1944 115.149 10.1593C114.162 9.12426 112.688 8.551 110.721 8.44749H110.562C109.121 8.44749 107.663 8.81374 106.182 9.5542C104.709 10.2947 103.442 11.4491 102.383 13.0336L102.328 62.5568C102.328 63.4326 102.582 64.1333 103.092 64.6349C103.602 65.1445 104.35 65.6062 105.33 66.0282H95.5742C96.5538 65.6062 97.2944 65.1445 97.7882 64.6349C98.2819 64.1253 98.5288 63.4326 98.5288 62.5568L98.5845 12.5559C98.5845 11.68 98.3377 10.9953 97.8439 10.5017C97.3501 10.008 96.5936 9.57012 95.5742 9.17999C98.8394 8.78985 101.109 8.30418 102.375 7.70703V11.7676C104.271 9.23572 107.05 7.88219 110.705 7.70703H111.183C113.891 7.70703 115.97 8.28029 117.427 9.41885C118.884 10.5654 119.888 12.0781 120.437 13.981C120.979 15.876 121.25 17.954 121.25 20.1993V29.2122C121.25 30.088 121.504 30.7887 122.014 31.2903C122.524 31.7999 123.272 32.2616 124.252 32.6836H114.496H114.52Z" fill="white"/>
<path d="M11.6031 52.501C9.28564 52.501 7.03188 51.9278 4.85777 50.7892C2.67569 49.6427 1.23424 47.9866 0.533423 45.805C0.183016 44.7142 0.0078125 43.6235 0.0078125 42.5327C0.0078125 41.0597 0.42193 39.6664 1.25017 38.3686C2.07044 37.0708 3.45614 36.0118 5.39134 35.2077C7.8203 34.3956 10.5837 33.878 13.6976 33.6551C16.8114 33.4242 19.5271 32.7156 21.8446 31.5213C22.7604 30.9958 23.2143 30.327 23.2143 29.5149C23.2143 28.6391 22.5294 27.5802 21.1597 26.354C19.0811 27.827 16.676 28.5674 13.9365 28.5674C11.197 28.5674 8.83967 27.8509 6.76908 26.4097C3.71098 24.268 2.18193 21.5052 2.18193 18.1373C2.18193 15.2551 3.32872 12.7948 5.63026 10.7566C7.93179 8.71832 10.7032 7.69919 13.9365 7.69919H14.8364C16.1345 7.69919 17.0902 7.28517 17.7113 6.45713C18.3246 5.62909 18.7227 4.68162 18.8979 3.61472C19.0731 2.53986 19.1608 1.64016 19.1608 0.899699V0L23.2701 1.26595C23.1984 2.00641 22.6728 3.07331 21.6853 4.48257C20.6978 5.89183 19.0811 7.0702 16.8353 8.01767C19.4395 8.65463 21.5658 9.88076 23.2143 11.704C24.8628 13.5353 25.6911 15.6771 25.6911 18.1373C25.6911 21.2265 24.3531 23.846 21.6853 25.9878C22.0357 26.2664 22.4896 26.6884 23.055 27.2537C23.6205 27.819 24.1461 28.4958 24.6398 29.284C25.1336 30.0722 25.3805 30.8764 25.3805 31.6806C25.3805 32.4847 25.0062 33.3366 24.2735 34.1328C23.5408 34.929 22.2348 35.6217 20.3712 36.2427C18.5077 36.8558 15.9195 37.3256 12.6225 37.644C8.93523 37.9625 6.10012 38.6552 4.13306 39.7221C2.166 40.789 1.17849 42.3495 1.17849 44.3878L1.28202 45.4388C1.49704 46.7366 2.23768 47.8114 3.51985 48.6554C4.80202 49.4994 6.55406 49.9214 8.76799 49.9214C9.89089 49.9214 11.1571 49.778 12.5667 49.4994C15.4098 48.8306 17.8467 47.6761 19.8695 46.0439C21.8923 44.4117 23.9709 42.668 26.1211 40.8209C28.2713 38.9737 30.979 37.3813 34.2681 36.0278C37.5571 34.6742 41.8894 33.9656 47.265 33.894H47.4243C50.0603 33.894 52.8795 34.3239 55.8898 35.1838C58.9001 36.0437 61.8865 37.4052 64.857 39.2683C67.8275 41.1314 70.6149 43.5916 73.2111 46.649L70.0972 50.7574C68.3054 47.5248 66.4737 44.8735 64.6181 42.7954C62.7546 40.7253 60.3734 38.8781 57.4746 37.2619C54.5758 35.6456 51.1036 34.7459 47.0579 34.5787H46.4288C43.1636 34.5787 40.3763 35.1121 38.0748 36.187C35.7732 37.2539 33.7106 38.5995 31.8789 40.2157C30.0552 41.832 28.2713 43.4881 26.5273 45.1999C24.7832 46.9117 22.8878 48.4086 20.8331 49.7064C18.7785 51.0042 16.3575 51.8879 13.5861 52.3418C12.957 52.4453 12.3039 52.501 11.635 52.501H11.6031ZM13.9206 27.9384C16.031 27.9384 17.8228 26.983 19.3041 25.0642C20.7774 23.1454 21.518 20.8364 21.518 18.1293C21.518 15.4223 20.7774 13.0576 19.3041 11.1467C17.8308 9.22789 16.031 8.27245 13.9206 8.27245C11.8102 8.27245 10.0183 9.23585 8.54501 11.1467C7.0717 13.0655 6.33107 15.3904 6.33107 18.1293C6.33107 20.8682 7.0717 23.1454 8.54501 25.0642C10.0183 26.983 11.8102 27.9384 13.9206 27.9384Z" fill="white"/>
</g>
<defs>
<clipPath id="clip0_1796_1877">
<rect width="176" height="82" fill="white"/>
</clipPath>
</defs>
</svg>
