<svg width="204" height="95" viewBox="0 0 204 95" fill="none" xmlns="http://www.w3.org/2000/svg">
<g clip-path="url(#clip0_1950_1382)">
<path d="M77.7422 94.9976C78.8868 94.5087 79.7268 93.9737 80.2806 93.3833C80.8345 92.793 81.1483 91.9905 81.2314 90.9758V55.1121C81.2683 54.6232 81.0837 53.6455 80.6868 52.1788C80.2807 50.7122 79.3022 49.1625 77.7514 47.5391C79.016 48.4799 80.1237 49.1717 81.0837 49.6145C82.0437 50.0665 83.0499 50.2879 84.1114 50.2879H84.6006C85.6622 50.168 86.6222 49.882 87.4714 49.43C88.3299 48.978 89.336 48.5537 90.4991 48.1479C91.6622 47.742 93.2406 47.5391 95.2345 47.5391C99.2683 47.5391 102.702 48.9504 105.527 51.7822C108.361 54.614 109.773 58.027 109.773 62.0118C109.773 65.9967 108.361 69.4096 105.527 72.2415C102.693 75.0733 99.2591 76.4846 95.2345 76.4846C93.1945 76.4846 91.3668 76.0879 89.733 75.2947C88.0991 74.5014 86.7145 73.4129 85.5791 72.0293V90.9574C85.5791 91.972 85.8745 92.7745 86.4653 93.3649C87.056 93.9552 87.9237 94.4902 89.0591 94.9791H77.7514L77.7422 94.9976ZM95.2253 75.636C98.2345 75.35 100.607 73.9572 102.342 71.4482C104.068 68.9484 104.936 65.803 104.936 62.0118C104.936 58.2207 104.013 55.1214 102.158 52.5755C100.302 50.0296 98.013 48.6367 95.2806 48.3877H94.6714C93.0006 48.3877 91.3483 48.8397 89.7237 49.7344C88.0899 50.6292 86.7053 51.9575 85.5699 53.7008V70.4981C86.7053 72.2507 88.0991 73.5421 89.7237 74.3722C91.3483 75.2116 92.9637 75.6267 94.5514 75.6267H95.2253V75.636Z" fill="white"/>
<path d="M145.458 76.4857C144.683 76.4857 143.954 76.1997 143.261 75.6278C142.569 75.0559 142.163 73.9398 142.043 72.2702C141.471 72.9251 141.009 73.3956 140.64 73.6723C139.827 74.5302 138.821 75.2127 137.649 75.7201C136.467 76.2274 135.083 76.4857 133.495 76.4857C132.886 76.4857 132.231 76.4488 131.538 76.3658C129.129 75.9968 127.2 75.1297 125.732 73.7369C124.264 72.3532 123.535 70.7667 123.535 68.9772C123.535 68.5713 123.572 68.1378 123.655 67.695C124.431 64.8816 125.991 62.9353 128.335 61.8284C130.68 60.7307 133.006 60.0574 135.332 59.8176C136.264 59.7345 137.427 59.5132 138.812 59.1442C140.197 58.7752 141.277 58.0465 142.052 56.9488C142.375 56.423 142.541 55.7312 142.541 54.8734C142.541 54.0155 142.338 53.0101 141.932 51.977C141.526 50.9439 140.861 50.0584 139.947 49.3204C139.034 48.5917 137.815 48.2227 136.311 48.2227H136.071C135.295 48.2596 134.409 48.5456 133.412 49.0806C132.415 49.6156 131.52 50.5196 130.726 51.8017C129.932 53.0839 129.535 54.8826 129.535 57.2071V57.6314L124.947 55.7405C125.926 52.7703 127.56 50.6671 129.867 49.4219C132.166 48.1766 134.252 47.5586 136.135 47.5586H136.744C138.987 47.5586 140.843 47.9645 142.301 48.7762C143.769 49.5879 144.747 50.6302 145.237 51.894C145.477 52.4197 145.606 52.9732 145.606 53.5451C145.606 54.8088 144.987 56.0356 143.741 57.244C142.495 58.4431 140.409 59.4947 137.474 60.3895C135.517 60.9152 133.643 61.6808 131.852 62.6771C130.061 63.6733 128.935 65.3521 128.492 67.7135V68.5713C128.492 69.3461 128.621 70.2501 128.889 71.2925C129.157 72.3256 129.692 73.2572 130.504 74.0689C131.317 74.8807 132.48 75.3696 133.994 75.5356H134.603C137.086 75.5356 139.246 74.4564 141.083 72.2979C142.874 70.3055 144.221 68.7374 145.117 67.5936L146.464 66.1269V69.7336C146.464 70.6744 146.529 71.8275 146.649 73.2111C147.055 74.4287 147.766 75.0467 148.791 75.0467C147.609 76.0245 146.511 76.5134 145.486 76.5134L145.458 76.4857Z" fill="white"/>
<path d="M176.503 76.486H150.832L170.632 48.2692H156.823C155.964 48.2323 155.069 48.5736 154.137 49.3023C153.204 50.0402 152.466 51.4239 151.94 53.4532V47.5312H176.503L156.703 75.8034H170.697C171.841 75.8034 172.967 75.25 174.084 74.1523C175.201 73.0546 176.004 71.2651 176.494 68.7746V76.4676L176.503 76.486Z" fill="white"/>
<path d="M200.697 76.4857C199.921 76.4857 199.192 76.1997 198.5 75.6278C197.807 75.0559 197.401 73.9398 197.281 72.2702C196.709 72.9251 196.247 73.3956 195.878 73.6723C195.066 74.5302 194.06 75.2127 192.887 75.7201C191.706 76.2274 190.321 76.4857 188.733 76.4857C188.124 76.4857 187.469 76.4488 186.777 76.3658C184.367 75.9968 182.438 75.1297 180.97 73.7369C179.503 72.3532 178.773 70.7667 178.773 68.9772C178.773 68.5713 178.81 68.1378 178.893 67.695C179.669 64.8816 181.229 62.9353 183.573 61.8284C185.918 60.7307 188.244 60.0574 190.57 59.8176C191.503 59.7345 192.666 59.5132 194.05 59.1442C195.435 58.7752 196.515 58.0465 197.29 56.9488C197.613 56.423 197.78 55.7312 197.78 54.8734C197.78 54.0155 197.577 53.0101 197.17 51.977C196.764 50.9439 196.1 50.0584 195.186 49.3204C194.272 48.5917 193.053 48.2227 191.549 48.2227H191.309C190.533 48.2596 189.647 48.5456 188.65 49.0806C187.653 49.6156 186.758 50.5196 185.964 51.8017C185.17 53.0839 184.773 54.8826 184.773 57.2071V57.6314L180.186 55.7405C181.164 52.7703 182.798 50.6671 185.106 49.4219C187.404 48.1766 189.49 47.5586 191.373 47.5586H191.983C194.226 47.5586 196.081 47.9645 197.54 48.7762C199.007 49.5879 199.986 50.6302 200.475 51.894C200.715 52.4197 200.844 52.9732 200.844 53.5451C200.844 54.8088 200.226 56.0356 198.98 57.244C197.733 58.4431 195.647 59.4947 192.712 60.3895C190.755 60.9152 188.881 61.6808 187.09 62.6771C185.3 63.6733 184.173 65.3521 183.73 67.7135V68.5713C183.73 69.3461 183.86 70.2501 184.127 71.2925C184.395 72.3256 184.93 73.2572 185.743 74.0689C186.555 74.8807 187.718 75.3696 189.232 75.5356H189.841C192.324 75.5356 194.484 74.4564 196.321 72.2979C198.112 70.3055 199.46 68.7374 200.355 67.5936L201.703 66.1269V69.7336C201.703 70.6744 201.767 71.8275 201.887 73.2111C202.293 74.4287 203.004 75.0467 204.029 75.0467C202.847 76.0245 201.749 76.5134 200.724 76.5134L200.697 76.4857Z" fill="white"/>
<path d="M152.918 90.8047L154.533 94.9095H154.108L153.61 93.6273H151.736L151.238 94.9095H150.822L152.475 90.8047H152.908H152.918ZM153.481 93.3045L152.687 91.2013L151.865 93.3045H153.481Z" fill="white"/>
<path d="M158.613 90.8047C158.798 90.8047 158.964 90.8324 159.112 90.8785C159.26 90.9338 159.389 91.0076 159.5 91.1091C159.61 91.2105 159.693 91.3305 159.749 91.4781C159.804 91.6256 159.832 91.7917 159.832 91.9762C159.832 92.1606 159.804 92.3267 159.749 92.4743C159.693 92.6219 159.61 92.7418 159.5 92.8432C159.389 92.9447 159.269 93.0185 159.112 93.0738C158.964 93.1292 158.798 93.1569 158.613 93.1569H157.183V94.9187H156.795V90.8139H158.623L158.613 90.8047ZM158.53 92.8156C158.798 92.8156 159.02 92.7418 159.195 92.6034C159.361 92.465 159.444 92.2529 159.444 91.9669C159.444 91.681 159.361 91.4688 159.195 91.3305C159.029 91.1921 158.807 91.1275 158.53 91.1275H157.183V92.8063H158.53V92.8156Z" fill="white"/>
<path d="M163.588 90.8047L165.203 94.9095H164.778L164.28 93.6273H162.406L161.908 94.9095H161.492L163.145 90.8047H163.578H163.588ZM164.151 93.3045L163.357 91.2013L162.535 93.3045H164.151Z" fill="white"/>
<path d="M169.349 90.8061C169.515 90.8061 169.682 90.8245 169.829 90.8707C169.986 90.9168 170.115 90.9814 170.226 91.0644C170.337 91.1474 170.429 91.2581 170.494 91.3964C170.568 91.5348 170.595 91.6916 170.595 91.8761C170.595 92.1344 170.531 92.365 170.392 92.5495C170.254 92.7432 170.06 92.8631 169.792 92.9184C169.922 92.9461 170.042 92.983 170.125 93.0384C170.208 93.0937 170.282 93.1583 170.337 93.2321C170.392 93.3151 170.429 93.4073 170.457 93.5088C170.485 93.6195 170.494 93.7302 170.503 93.8501C170.503 93.9239 170.503 94.0069 170.512 94.0991C170.512 94.2006 170.522 94.3021 170.54 94.4035C170.549 94.505 170.568 94.5972 170.595 94.6895C170.623 94.7817 170.651 94.8463 170.697 94.9016H170.263C170.263 94.9016 170.217 94.8186 170.208 94.7633C170.189 94.7079 170.18 94.6526 170.18 94.588C170.18 94.5234 170.171 94.4681 170.162 94.4128C170.162 94.3574 170.162 94.3021 170.152 94.2652C170.143 94.1176 170.134 93.97 170.115 93.8316C170.097 93.6933 170.06 93.5641 170.005 93.4442C169.949 93.3335 169.866 93.2413 169.765 93.1675C169.663 93.0937 169.515 93.066 169.331 93.0752H167.845V94.9016H167.457V90.7969H169.34L169.349 90.8061ZM169.322 92.7524C169.442 92.7524 169.552 92.734 169.663 92.6971C169.774 92.6602 169.866 92.6048 169.949 92.5402C170.032 92.4665 170.097 92.3834 170.143 92.2912C170.189 92.199 170.217 92.079 170.217 91.9591C170.217 91.7101 170.143 91.5071 169.995 91.3596C169.848 91.212 169.626 91.1382 169.331 91.1382H167.872V92.7524H169.331H169.322Z" fill="white"/>
<path d="M175.958 90.8047V91.1368H174.527V94.9095H174.14V91.1368H172.709V90.8047H175.958Z" fill="white"/>
<path d="M178.791 90.8047L180.157 94.4114L181.57 90.8047H182.142V94.9095H181.754V91.3581H181.745L180.342 94.9095H179.973L178.616 91.3581H178.606V94.9095H178.219V90.8047H178.791V90.8047Z" fill="white"/>
<path d="M187.654 90.8047V91.1368H185.207V92.6219H187.497V92.9539H185.207V94.5774H187.681V94.9095H184.811V90.8047H187.644H187.654Z" fill="white"/>
<path d="M190.469 90.8047L192.869 94.2822H192.878V90.8047H193.275V94.9095H192.841L190.441 91.4319H190.432V94.9095H190.035V90.8047H190.469Z" fill="white"/>
<path d="M198.784 90.8047V91.1368H197.354V94.9095H196.966V91.1368H195.535V90.8047H198.784Z" fill="white"/>
<path d="M201.277 94.0881C201.351 94.2357 201.443 94.3464 201.563 94.4294C201.683 94.5124 201.831 94.577 201.988 94.6139C202.154 94.6508 202.329 94.6692 202.523 94.6692C202.634 94.6692 202.745 94.6508 202.874 94.6231C203.003 94.5954 203.123 94.5401 203.225 94.4755C203.326 94.4109 203.428 94.3187 203.492 94.2172C203.566 94.1065 203.603 93.9866 203.603 93.8298C203.603 93.7191 203.575 93.6177 203.52 93.5346C203.465 93.4516 203.4 93.3778 203.317 93.3225C203.234 93.2671 203.142 93.221 203.04 93.1841C202.939 93.1472 202.846 93.1195 202.745 93.0919L201.831 92.8705C201.711 92.8428 201.6 92.7967 201.48 92.7598C201.369 92.7137 201.268 92.6491 201.185 92.5753C201.102 92.5015 201.037 92.4093 200.982 92.2894C200.926 92.1695 200.899 92.0403 200.899 91.8835C200.899 91.782 200.917 91.6621 200.954 91.533C200.991 91.3946 201.065 91.2747 201.166 91.1548C201.268 91.0349 201.415 90.9334 201.6 90.8504C201.785 90.7674 202.025 90.7305 202.311 90.7305C202.514 90.7305 202.708 90.7581 202.892 90.8135C203.077 90.8688 203.243 90.9518 203.382 91.0533C203.52 91.164 203.631 91.2931 203.714 91.45C203.797 91.6068 203.834 91.7913 203.834 92.0034H203.437C203.437 91.8466 203.391 91.7082 203.326 91.5883C203.262 91.4684 203.179 91.3762 203.077 91.2931C202.975 91.2194 202.855 91.1548 202.726 91.1179C202.597 91.081 202.459 91.0625 202.311 91.0625C202.182 91.0625 202.052 91.081 201.923 91.1087C201.803 91.1363 201.692 91.1825 201.6 91.247C201.508 91.3116 201.434 91.3946 201.369 91.4961C201.314 91.5975 201.286 91.7267 201.286 91.8835C201.286 91.9757 201.305 92.068 201.332 92.1325C201.369 92.2063 201.415 92.2617 201.471 92.317C201.526 92.3724 201.591 92.4093 201.674 92.4369C201.748 92.4646 201.831 92.4923 201.914 92.5107L202.92 92.7598C203.068 92.7967 203.206 92.8428 203.335 92.8982C203.465 92.9535 203.575 93.0273 203.677 93.1103C203.778 93.1933 203.852 93.2948 203.908 93.4147C203.963 93.5346 203.991 93.6822 203.991 93.8483C203.991 93.8944 203.991 93.959 203.972 94.0327C203.963 94.1158 203.945 94.1896 203.899 94.2818C203.852 94.374 203.806 94.4571 203.742 94.5401C203.677 94.6323 203.585 94.7061 203.465 94.7799C203.345 94.8537 203.206 94.909 203.031 94.9552C202.855 95.0013 202.652 95.0197 202.403 95.0197C202.154 95.0197 201.942 94.9921 201.729 94.9367C201.517 94.8814 201.342 94.7984 201.203 94.6784C201.055 94.5677 200.945 94.4202 200.871 94.2357C200.788 94.0512 200.76 93.839 200.769 93.59H201.157C201.157 93.8021 201.185 93.9774 201.259 94.1158L201.277 94.0881Z" fill="white"/>
<path d="M30.8125 37.8656C31.994 37.3767 32.871 36.8417 33.4433 36.2513C34.0156 35.661 34.3017 34.8585 34.3017 33.8438V14.5376C34.3017 13.5229 34.0156 12.7296 33.4433 12.1577C32.871 11.5858 31.994 11.0785 30.8125 10.6265C34.5971 10.1745 37.2279 9.61185 38.6956 8.92004V13.5598C39.0186 13.117 39.5633 12.5267 40.3202 11.7888C41.0679 11.0601 42.0463 10.3867 43.2556 9.76866C44.4556 9.15987 45.8494 8.85547 47.4463 8.85547L48.3048 8.92004C50.0956 9.12297 51.5263 9.58418 52.5786 10.2944C53.6402 11.0047 54.3325 11.7242 54.6556 12.4621L50.6863 16.1241C50.6033 14.5376 50.3263 13.32 49.8648 12.4898C49.394 11.6596 48.8033 11.0969 48.0925 10.811C47.3817 10.525 46.6802 10.3867 45.9879 10.3867C45.2125 10.3867 44.5571 10.4697 44.031 10.6357C42.7294 11.0877 41.5848 11.7519 40.6063 12.6466C39.6279 13.5414 38.991 14.3162 38.714 14.9711V33.8438C38.714 34.8585 39.0002 35.6702 39.5725 36.2513C40.1448 36.8417 40.994 37.3767 42.1387 37.8656H30.831H30.8125Z" fill="white"/>
<path d="M69.4721 37.8635C65.4751 37.8635 62.0598 36.4522 59.2074 33.6204C56.3551 30.7885 54.9336 27.3848 54.9336 23.3907C54.9336 19.3967 56.3551 15.9929 59.2074 13.1611C62.0598 10.3293 65.4844 8.91797 69.4721 8.91797C72.9798 8.91797 75.8228 10.0894 78.029 12.4324C80.2259 14.7753 81.3244 17.4319 81.3244 20.4021L59.9367 20.4574C59.8167 21.3522 59.7521 22.33 59.7521 23.3907C59.7521 27.1358 60.6751 30.2904 62.5305 32.8548C64.3859 35.4191 66.6751 36.8212 69.4074 37.0702H69.9613C71.5859 37.0702 73.1736 36.6736 74.6967 35.8803C76.2198 35.087 77.5582 33.9155 78.7028 32.3659L79.1921 33.0946C77.8905 34.6443 76.6259 35.7512 75.4075 36.4245C74.189 37.0979 73.0721 37.5038 72.0751 37.6421C71.0782 37.7805 70.2105 37.8543 69.4813 37.8543L69.4721 37.8635ZM76.9859 19.7287V19.1845C76.9859 18.6587 76.9213 17.8747 76.8013 16.8323C76.6813 15.7992 76.3767 14.7292 75.8874 13.6223C75.3982 12.5154 74.6413 11.5838 73.6259 10.8089C72.6105 10.0341 71.1982 9.64668 69.4074 9.64668C66.9244 9.64668 64.8751 10.606 63.269 12.5154C61.6536 14.434 60.5921 16.8323 60.0567 19.7195H76.9859V19.7287Z" fill="white"/>
<path d="M98.0951 37.8635C94.0982 37.8635 90.6828 36.4522 87.8305 33.6204C84.9782 30.7885 83.5566 27.3848 83.5566 23.3907C83.5566 19.3967 84.9782 15.9929 87.8305 13.1611C90.6828 10.3293 94.1074 8.91797 98.0951 8.91797C101.603 8.91797 104.446 10.0894 106.652 12.4324C108.849 14.7753 109.947 17.4319 109.947 20.4021L88.5597 20.4574C88.4397 21.3522 88.3751 22.33 88.3751 23.3907C88.3751 27.1358 89.2982 30.2904 91.1536 32.8548C93.009 35.4191 95.2982 36.8212 98.0305 37.0702H98.5843C100.209 37.0702 101.797 36.6736 103.32 35.8803C104.843 35.087 106.181 33.9155 107.326 32.3659L107.815 33.0946C106.514 34.6443 105.249 35.7512 104.03 36.4245C102.812 37.0979 101.695 37.5038 100.698 37.6421C99.7013 37.7805 98.8336 37.8543 98.1043 37.8543L98.0951 37.8635ZM105.609 19.7287V19.1845C105.609 18.6587 105.544 17.8747 105.424 16.8323C105.304 15.79 105 14.7292 104.51 13.6223C104.021 12.5246 103.264 11.5838 102.249 10.8089C101.234 10.0341 99.8213 9.64668 98.0305 9.64668C95.5474 9.64668 93.4982 10.606 91.892 12.5154C90.2766 14.434 89.2151 16.8323 88.6797 19.7195H105.609V19.7287Z" fill="white"/>
<path d="M132.739 37.866C133.921 37.3771 134.798 36.8421 135.361 36.2518C135.933 35.6614 136.219 34.8589 136.219 33.8442V23.4025C136.219 20.875 136.044 18.6059 135.702 16.595C135.361 14.5749 134.613 12.9699 133.469 11.7707C132.324 10.5716 130.616 9.90745 128.336 9.78754H128.152C126.481 9.78754 124.792 10.2119 123.075 11.0697C121.367 11.9276 119.899 13.2651 118.672 15.1007L118.607 72.4752C118.607 73.4898 118.902 74.3016 119.493 74.8827C120.084 75.473 120.952 76.008 122.087 76.4969H110.779C111.915 76.008 112.773 75.473 113.345 74.8827C113.918 74.2923 114.204 73.4898 114.204 72.4752L114.269 14.5472C114.269 13.5326 113.982 12.7393 113.41 12.1674C112.838 11.5955 111.961 11.0881 110.779 10.6362C114.564 10.1842 117.195 9.6215 118.662 8.92969V13.634C120.859 10.7007 124.081 9.13262 128.318 8.92969H128.872C132.01 8.92969 134.419 9.59383 136.109 10.9129C137.798 12.2412 138.961 13.9938 139.598 16.1984C140.225 18.3937 140.539 20.8012 140.539 23.4025V33.8442C140.539 34.8589 140.835 35.6706 141.425 36.2518C142.016 36.8421 142.884 37.3771 144.019 37.866H132.712H132.739Z" fill="white"/>
<path d="M13.4498 60.8244C10.7636 60.8244 8.1513 60.1602 5.6313 58.8411C3.10207 57.5129 1.4313 55.5942 0.618996 53.0668C0.212843 51.8031 0.00976562 50.5394 0.00976562 49.2757C0.00976562 47.5692 0.489766 45.9549 1.44977 44.4514C2.40053 42.9479 4.00669 41.721 6.24976 40.7894C9.06515 39.8485 12.2682 39.249 15.8775 38.9907C19.4867 38.7232 22.6344 37.9022 25.3205 36.5186C26.3821 35.9098 26.9082 35.135 26.9082 34.1941C26.9082 33.1794 26.1144 31.9526 24.5267 30.5321C22.1175 32.2386 19.3298 33.0964 16.1544 33.0964C12.979 33.0964 10.2467 32.2662 7.84669 30.5967C4.30207 28.1153 2.52977 24.9146 2.52977 21.0127C2.52977 17.6736 3.859 14.8233 6.52669 12.4619C9.19438 10.1005 12.4067 8.9198 16.1544 8.9198H17.1975C18.7021 8.9198 19.8098 8.44014 20.5298 7.48082C21.2405 6.52151 21.7021 5.42383 21.9051 4.18778C22.1082 2.94252 22.2098 1.90018 22.2098 1.04233V0L26.9728 1.46665C26.8898 2.3245 26.2805 3.56054 25.1359 5.19322C23.9913 6.82591 22.1175 8.19109 19.5144 9.28877C22.5328 10.0267 24.9975 11.4472 26.9082 13.5596C28.819 15.6811 29.779 18.1624 29.779 21.0127C29.779 24.5917 28.2282 27.6265 25.1359 30.1078C25.5421 30.4306 26.0682 30.9195 26.7236 31.5744C27.379 32.2293 27.9882 33.0134 28.5605 33.9266C29.1328 34.8398 29.419 35.7714 29.419 36.7031C29.419 37.6347 28.9851 38.6217 28.1359 39.5441C27.2867 40.4665 25.7728 41.2691 23.6128 41.9885C21.4528 42.6988 18.4528 43.243 14.6313 43.612C10.3575 43.981 7.0713 44.7835 4.7913 46.0195C2.5113 47.2556 1.36669 49.0635 1.36669 51.4249L1.48669 52.6425C1.73592 54.146 2.59438 55.3913 4.08053 56.3691C5.56669 57.3468 7.59746 57.8357 10.1636 57.8357C11.4651 57.8357 12.9328 57.6697 14.5667 57.3468C17.8621 56.572 20.6867 55.2345 23.0313 53.3435C25.3759 51.4526 27.7851 49.4325 30.2775 47.2925C32.7698 45.1524 35.9082 43.3076 39.7205 41.7395C43.5328 40.1714 48.5544 39.3504 54.7851 39.2674H54.9698C58.0251 39.2674 61.2928 39.7655 64.7821 40.7617C68.2713 41.7579 71.7328 43.3353 75.1759 45.4937C78.619 47.6522 81.8498 50.5025 84.859 54.0446L81.2498 58.8042C79.1728 55.0592 77.0498 51.9876 74.899 49.5801C72.739 47.1818 69.979 45.0417 66.619 43.1692C63.259 41.2967 59.2344 40.2544 54.5451 40.0607H53.8159C50.0313 40.0607 46.8005 40.6787 44.1328 41.924C41.4651 43.16 39.0744 44.7189 36.9513 46.5914C34.8375 48.4639 32.7698 50.3826 30.7482 52.3658C28.7267 54.349 26.5298 56.0831 24.1482 57.5867C21.7667 59.0902 18.9605 60.1141 15.7482 60.6399C15.019 60.7598 14.2621 60.8244 13.4867 60.8244H13.4498ZM16.1359 32.3677C18.5821 32.3677 20.659 31.2608 22.3759 29.0378C24.0836 26.8147 24.9421 24.1397 24.9421 21.0035C24.9421 17.8673 24.0836 15.1277 22.3759 12.9139C20.6682 10.6908 18.5821 9.58394 16.1359 9.58394C13.6898 9.58394 11.6128 10.7001 9.90515 12.9139C8.19746 15.1369 7.339 17.8304 7.339 21.0035C7.339 24.1766 8.19746 26.8147 9.90515 29.0378C11.6128 31.2608 13.6898 32.3677 16.1359 32.3677V32.3677Z" fill="white"/>
</g>
<defs>
<clipPath id="clip0_1950_1382">
<rect width="204" height="95" fill="white"/>
</clipPath>
</defs>
</svg>
