<svg xmlns="http://www.w3.org/2000/svg" viewBox="0 0 234.75 57.8"><defs><style>.cls-1{fill:#fff;fill-rule:evenodd;}</style></defs><g id="Layer_2" data-name="Layer 2"><g id="Layer_1-2" data-name="Layer 1"><path class="cls-1" d="M0,9.12A9.12,9.12,0,0,1,9.12,0H47.69a9.12,9.12,0,0,1,9.12,9.12v17l-7.48-7.48a5.35,5.35,0,0,0-6.66-.15L22.73,38.45c-3,3,1.52,7.58,4.56,4.55L45.93,24.36,56.81,35.24V47.68a9.13,9.13,0,0,1-9.12,9.13H9.12A9.12,9.12,0,0,1,0,47.68V37.87L13.51,24.36l5.91,5.91c3,3,7.59-1.52,4.55-4.55l-7-7.06a5.35,5.35,0,0,0-6.66-.15L0,28.77Z"/><path class="cls-1" d="M110.35,34.52a1,1,0,0,1-.29.68.84.84,0,0,1-.62.32h-5.55a.8.8,0,0,1-.64-.32,1.05,1.05,0,0,1-.27-.68V18.47a4.12,4.12,0,0,0-.61-2.61,2.6,2.6,0,0,0-2.08-.72h-.87a2.24,2.24,0,0,0-2,.8,5.08,5.08,0,0,0-.49,2.53V34.52a1.07,1.07,0,0,1-.25.69.77.77,0,0,1-.61.31h-5.6a.82.82,0,0,1-.64-.32,1.05,1.05,0,0,1-.27-.68V18.47A5.09,5.09,0,0,0,89,15.94a2.27,2.27,0,0,0-2.07-.8h-.9a3.44,3.44,0,0,0-1.53.29,1.75,1.75,0,0,0-.85,1,6.41,6.41,0,0,0-.26,2V34.52a1,1,0,0,1-.27.69.81.81,0,0,1-.65.31H77a.8.8,0,0,1-.64-.32,1.05,1.05,0,0,1-.27-.68V18.46q0-4.73,2.55-7C80.31,9.87,82.79,9.09,86,9.09H87a9.84,9.84,0,0,1,6.24,2,9.66,9.66,0,0,1,6.22-2h.87a13.16,13.16,0,0,1,5.45,1,7.3,7.3,0,0,1,3.43,3.1,10.51,10.51,0,0,1,1.18,5.25Z"/><path class="cls-1" d="M135.8,23.7q0,1.08-1,1.08H120.33v.09q0,5,4.69,5c1,0,2.57,0,4.6-.14s3.4-.18,4.13-.26h.13q.87,0,.87.72v3.47a1.37,1.37,0,0,1-.21.83,1.17,1.17,0,0,1-.75.39,37.87,37.87,0,0,1-9.32,1.09,14.1,14.1,0,0,1-4.21-.62,10.31,10.31,0,0,1-3.62-2A9.65,9.65,0,0,1,114,29.65a13.65,13.65,0,0,1-1-5.41V21.07a13.8,13.8,0,0,1,1.38-6.38,9.73,9.73,0,0,1,4-4.14,12.44,12.44,0,0,1,6.16-1.46,11.75,11.75,0,0,1,6.16,1.53,9.52,9.52,0,0,1,3.81,4.25,14.6,14.6,0,0,1,1.27,6.19Zm-7.19-3.46v-.18a5.72,5.72,0,0,0-1.08-3.78,3.76,3.76,0,0,0-3-1.28,3.81,3.81,0,0,0-3,1.31,5.58,5.58,0,0,0-1.12,3.75v.18Z"/><path class="cls-1" d="M160.36,33.44a1.17,1.17,0,0,1-.28.85,2.38,2.38,0,0,1-1.14.46c-.85.22-1.84.43-3,.61s-2.28.33-3.44.43-2.24.14-3.23.14a13.09,13.09,0,0,1-6.23-1.37,9,9,0,0,1-3.88-4,14,14,0,0,1-1.31-6.3V20.73a14,14,0,0,1,1.27-6.18A8.92,8.92,0,0,1,143,10.5a12.94,12.94,0,0,1,6.33-1.41c.56,0,1.12,0,1.68.07s1.24.13,2.05.25V1.54a.89.89,0,0,1,.27-.62.85.85,0,0,1,.64-.29h5.46a.93.93,0,0,1,.66.28.82.82,0,0,1,.3.63ZM153,29.61V15.41a30.39,30.39,0,0,0-3.73-.22,3.45,3.45,0,0,0-3.18,1.45,7.66,7.66,0,0,0-.91,4.08v3.56a7.71,7.71,0,0,0,.92,4.13,3.44,3.44,0,0,0,3.17,1.47A24.22,24.22,0,0,0,153,29.61Z"/><path class="cls-1" d="M171.62,5.59a.89.89,0,0,1-.26.65.92.92,0,0,1-.65.26h-5.9a.9.9,0,0,1-.91-.91V1.36a.87.87,0,0,1,.25-.64.87.87,0,0,1,.66-.27h5.9a.92.92,0,0,1,.67.24.93.93,0,0,1,.24.67Zm-.18,29a.83.83,0,0,1-.28.64.91.91,0,0,1-.63.27H165a.91.91,0,0,1-.63-.27.83.83,0,0,1-.28-.64V10.37a1,1,0,0,1,.91-.91h5.54a1,1,0,0,1,.91.91Z"/><path class="cls-1" d="M197.3,24.38a13.6,13.6,0,0,1-1.19,6.13,8.76,8.76,0,0,1-3,3.53,10.35,10.35,0,0,1-3.53,1.52,15.18,15.18,0,0,1-3.19.37h-.64a15.26,15.26,0,0,1-3.19-.37A10.31,10.31,0,0,1,179.08,34a8.67,8.67,0,0,1-3-3.56,13.81,13.81,0,0,1-1.19-6.1V10.43a1.07,1.07,0,0,1,.24-.69.81.81,0,0,1,.63-.28h5.59a.86.86,0,0,1,.65.27,1,1,0,0,1,.26.7V24.37c0,2,.3,3.4.89,4.17a3.09,3.09,0,0,0,2.62,1.16h.64a3.74,3.74,0,0,0,1.92-.45,2.86,2.86,0,0,0,1.16-1.63,10.08,10.08,0,0,0,.41-3.25V10.43a1,1,0,0,1,.28-.67.86.86,0,0,1,.63-.3h5.6a.77.77,0,0,1,.62.28,1.07,1.07,0,0,1,.24.69Z"/><path class="cls-1" d="M234.75,34.52a1,1,0,0,1-.29.68.84.84,0,0,1-.62.32h-5.55a.8.8,0,0,1-.64-.32,1.05,1.05,0,0,1-.27-.68V18.47a4.19,4.19,0,0,0-.61-2.61,2.6,2.6,0,0,0-2.08-.72h-.87a2.24,2.24,0,0,0-2,.8,5.08,5.08,0,0,0-.49,2.53V34.52a1.07,1.07,0,0,1-.25.69.77.77,0,0,1-.61.31h-5.6a.82.82,0,0,1-.64-.32,1.05,1.05,0,0,1-.27-.68V18.47a5.09,5.09,0,0,0-.48-2.53,2.27,2.27,0,0,0-2.07-.8h-.91a3.43,3.43,0,0,0-1.52.29,1.75,1.75,0,0,0-.85,1,6.12,6.12,0,0,0-.26,2V34.52a1,1,0,0,1-.27.69.81.81,0,0,1-.65.31h-5.54a.84.84,0,0,1-.65-.32,1.09,1.09,0,0,1-.26-.68V18.46q0-4.73,2.55-7c1.71-1.54,4.19-2.32,7.44-2.32h.92a9.84,9.84,0,0,1,6.24,2,9.66,9.66,0,0,1,6.22-2h.86a13.17,13.17,0,0,1,5.46,1,7.3,7.3,0,0,1,3.43,3.1,10.51,10.51,0,0,1,1.18,5.25Z"/><path class="cls-1" d="M88.24,54a.4.4,0,0,1-.09.27.33.33,0,0,1-.24.1H87a.3.3,0,0,1-.24-.11.39.39,0,0,1-.09-.26V47.27a1.94,1.94,0,0,0-.41-1.46A1.89,1.89,0,0,0,85,45.45h-.43a3.38,3.38,0,0,0-1,.1.73.73,0,0,0-.48.37,1.8,1.8,0,0,0-.14.79V54a.4.4,0,0,1-.09.27.36.36,0,0,1-.25.1h-1a.3.3,0,0,1-.24-.11.39.39,0,0,1-.09-.26V46.71a1.21,1.21,0,0,0-.33-1,2.16,2.16,0,0,0-1.26-.25H79.3a1.89,1.89,0,0,0-1.26.36,2,2,0,0,0-.41,1.46V54a.4.4,0,0,1-.09.27.33.33,0,0,1-.24.1h-1a.34.34,0,0,1-.24-.11A.35.35,0,0,1,76,54V47.27A3.91,3.91,0,0,1,76.21,46a2.8,2.8,0,0,1,.62-1,2.54,2.54,0,0,1,1-.66A4.18,4.18,0,0,1,79.3,44h.42a5.81,5.81,0,0,1,1.45.15,2.15,2.15,0,0,1,1,.52,2.36,2.36,0,0,1,1-.51A5.24,5.24,0,0,1,84.52,44H85a4.18,4.18,0,0,1,1.44.23,2.67,2.67,0,0,1,1,.67A2.8,2.8,0,0,1,88,46a3.89,3.89,0,0,1,.2,1.32Z"/><path class="cls-1" d="M98.28,49.35c0,.27-.11.41-.35.41H91.74V50a4.23,4.23,0,0,0,.31,1.74,2.17,2.17,0,0,0,.92,1,2.91,2.91,0,0,0,1.47.34c.46,0,1,0,1.59-.08l1.57-.18h.09c.2,0,.3.08.3.26v.62a.48.48,0,0,1-.08.29.6.6,0,0,1-.29.15c-.51.09-1,.17-1.53.22a13.91,13.91,0,0,1-1.65.09A5.36,5.36,0,0,1,92.29,54a3.44,3.44,0,0,1-1.57-1.44,5.19,5.19,0,0,1-.61-2.7V48.6a5.59,5.59,0,0,1,.48-2.36A3.71,3.71,0,0,1,92,44.62,4,4,0,0,1,94.22,44a4.07,4.07,0,0,1,2.23.58,3.59,3.59,0,0,1,1.37,1.61,5.68,5.68,0,0,1,.46,2.36Zm-1.64-.83v-.09A3.43,3.43,0,0,0,96,46.2a2.19,2.19,0,0,0-1.81-.75,2.6,2.6,0,0,0-1.35.34,2.12,2.12,0,0,0-.84,1,4,4,0,0,0-.29,1.61v.09Z"/><path class="cls-1" d="M107.59,53.71a.47.47,0,0,1-.08.3.53.53,0,0,1-.31.14,18.69,18.69,0,0,1-3.4.31,4.22,4.22,0,0,1-2.25-.56,3.35,3.35,0,0,1-1.35-1.59,6.23,6.23,0,0,1-.43-2.42V48.56a7.13,7.13,0,0,1,.24-2,3.83,3.83,0,0,1,.76-1.41,3.27,3.27,0,0,1,1.27-.87,4.73,4.73,0,0,1,1.76-.3c.38,0,.75,0,1.12,0a7.64,7.64,0,0,1,1,.15V40.78a.33.33,0,0,1,.1-.25.34.34,0,0,1,.25-.11h1a.34.34,0,0,1,.23.1.38.38,0,0,1,.1.26Zm-1.63-.8V45.58a6.37,6.37,0,0,0-.95-.11l-1.21,0a2.5,2.5,0,0,0-1.41.36,1.92,1.92,0,0,0-.77,1,5.48,5.48,0,0,0-.23,1.71v1.32a4.11,4.11,0,0,0,.55,2.37,2.1,2.1,0,0,0,1.86.78Q104.61,53,106,52.91Z"/><path class="cls-1" d="M111.61,42.16a.33.33,0,0,1-.11.27.35.35,0,0,1-.26.1h-.94a.38.38,0,0,1-.37-.37V40.68a.4.4,0,0,1,.1-.26.37.37,0,0,1,.27-.11h.94a.37.37,0,0,1,.27.1.36.36,0,0,1,.1.27Zm0,11.8a.38.38,0,0,1-.37.37h-.89a.36.36,0,0,1-.26-.11A.33.33,0,0,1,110,54V44.53a.35.35,0,0,1,.1-.26.33.33,0,0,1,.27-.11h.89a.36.36,0,0,1,.27.1.37.37,0,0,1,.1.27Z"/><path class="cls-1" d="M121.44,53.6a.44.44,0,0,1-.07.29.6.6,0,0,1-.31.14,14.35,14.35,0,0,1-3.41.43,4.27,4.27,0,0,1-2.25-.56,3.33,3.33,0,0,1-1.34-1.59,6.22,6.22,0,0,1-.44-2.42V48.6a6.88,6.88,0,0,1,.24-1.89,4,4,0,0,1,.75-1.44,3.23,3.23,0,0,1,1.25-.93,4.62,4.62,0,0,1,1.79-.31c.38,0,.76,0,1.15,0s.78.09,1.18.16.76.13,1.08.21a.7.7,0,0,1,.31.13.47.47,0,0,1,.07.3Zm-1.63-.7V45.58a5.62,5.62,0,0,0-.61-.09l-.69-.06-.86,0a2.07,2.07,0,0,0-1.86.81,4.34,4.34,0,0,0-.54,2.38v1.29a4.29,4.29,0,0,0,.55,2.39,2.09,2.09,0,0,0,1.85.82c.29,0,.64,0,1-.05S119.48,53,119.81,52.9Z"/><path class="cls-1" d="M129.89,53.85a.4.4,0,0,1-.37.41,13.68,13.68,0,0,1-2.31.2,4.09,4.09,0,0,1-2.13-.55,3.41,3.41,0,0,1-1.35-1.57,5.6,5.6,0,0,1-.46-2.37V48.52a5.83,5.83,0,0,1,.45-2.37,3.46,3.46,0,0,1,1.35-1.57,3.94,3.94,0,0,1,2.14-.55,13.23,13.23,0,0,1,2.31.21.46.46,0,0,1,.29.12.41.41,0,0,1,.08.28v.67c0,.18-.11.27-.32.27h-.07a19.66,19.66,0,0,0-2.29-.13c-1.55,0-2.32,1-2.32,3.07V50a3.7,3.7,0,0,0,.6,2.3,2,2,0,0,0,1.72.77,19.17,19.17,0,0,0,2.29-.13h.07c.21,0,.32.09.32.28ZM128.29,55a.21.21,0,0,1-.07.15l-2.09,2.33a2.68,2.68,0,0,1-.22.23.39.39,0,0,1-.2,0h-1c-.11,0-.17,0-.17-.12a.27.27,0,0,1,.07-.19l1.8-2.3a.63.63,0,0,1,.46-.27h1.22C128.22,54.92,128.29,55,128.29,55Z"/><path class="cls-1" d="M139.1,53.6a.44.44,0,0,1-.07.29.56.56,0,0,1-.31.14,14.34,14.34,0,0,1-3.4.43,4.28,4.28,0,0,1-2.26-.56,3.33,3.33,0,0,1-1.34-1.59,6.22,6.22,0,0,1-.44-2.42V48.6a6.5,6.5,0,0,1,.25-1.89,3.93,3.93,0,0,1,.74-1.44,3.23,3.23,0,0,1,1.25-.93,4.68,4.68,0,0,1,1.8-.31c.37,0,.75,0,1.14,0s.78.09,1.18.16a10.93,10.93,0,0,1,1.08.21.65.65,0,0,1,.31.13.47.47,0,0,1,.07.3Zm-1.62-.7V45.58a5.73,5.73,0,0,0-.62-.09l-.69-.06-.86,0a2.07,2.07,0,0,0-1.86.81,4.34,4.34,0,0,0-.54,2.38v1.29a4.29,4.29,0,0,0,.55,2.39,2.09,2.09,0,0,0,1.85.82c.29,0,.64,0,1.05-.05S137.14,53,137.48,52.9Zm1.24-12.09a2.17,2.17,0,0,1-.42,1.46,1.64,1.64,0,0,1-1.32.48,1.8,1.8,0,0,1-1.18-.39l-1.13-.9-.46-.34a.66.66,0,0,0-.3-.07.49.49,0,0,0-.45.21,1.3,1.3,0,0,0-.13.64v.39a.29.29,0,0,1-.09.22.28.28,0,0,1-.22.1h-.57a.27.27,0,0,1-.22-.1.37.37,0,0,1-.08-.22V41.9a2.19,2.19,0,0,1,.47-1.5,1.66,1.66,0,0,1,1.29-.51,1.79,1.79,0,0,1,1.11.44l1.31,1a1.17,1.17,0,0,0,.34.2,1.11,1.11,0,0,0,.31.07.5.5,0,0,0,.42-.19,1.1,1.1,0,0,0,.13-.63v-.43a.32.32,0,0,1,.1-.21.3.3,0,0,1,.22-.1h.57a.29.29,0,0,1,.21.09.29.29,0,0,1,.09.22Z"/><path class="cls-1" d="M149.16,50a5.64,5.64,0,0,1-.47,2.38,3.51,3.51,0,0,1-1.4,1.57,4.33,4.33,0,0,1-2.26.56,3.83,3.83,0,0,1-3-1.22A4.8,4.8,0,0,1,140.93,50V48.54a4.83,4.83,0,0,1,1.06-3.3A3.82,3.82,0,0,1,145,44a4.62,4.62,0,0,1,1.79.31,3.52,3.52,0,0,1,1.29.91,3.89,3.89,0,0,1,.79,1.43,6.38,6.38,0,0,1,.26,1.86Zm-1.63,0V48.54a3.79,3.79,0,0,0-.61-2.28,2.22,2.22,0,0,0-1.89-.81,2.19,2.19,0,0,0-1.86.81,3.7,3.7,0,0,0-.61,2.28V50c0,2,.82,3.08,2.47,3.08a2.23,2.23,0,0,0,1.88-.8A3.7,3.7,0,0,0,147.53,50Z"/><path class="cls-1" d="M157.48,42.16a.37.37,0,0,1-.11.27.35.35,0,0,1-.26.1h-.94a.38.38,0,0,1-.37-.37V40.68a.35.35,0,0,1,.1-.26.37.37,0,0,1,.27-.11h.94a.37.37,0,0,1,.27.1.36.36,0,0,1,.1.27Zm0,11.8a.35.35,0,0,1-.1.26.39.39,0,0,1-.27.11h-.88a.36.36,0,0,1-.26-.11.33.33,0,0,1-.11-.26V44.53a.35.35,0,0,1,.1-.26.33.33,0,0,1,.27-.11h.88a.37.37,0,0,1,.28.1.37.37,0,0,1,.09.27Z"/><path class="cls-1" d="M172.06,54a.4.4,0,0,1-.09.27.33.33,0,0,1-.24.1h-1a.3.3,0,0,1-.24-.11.39.39,0,0,1-.09-.26V47.27a1.94,1.94,0,0,0-.41-1.46,1.89,1.89,0,0,0-1.26-.36h-.43a3.33,3.33,0,0,0-1,.1.69.69,0,0,0-.47.37,1.65,1.65,0,0,0-.15.79V54a.4.4,0,0,1-.09.27.36.36,0,0,1-.25.1h-1a.3.3,0,0,1-.24-.11.39.39,0,0,1-.09-.26V46.71a1.21,1.21,0,0,0-.33-1,2.16,2.16,0,0,0-1.26-.25h-.42a1.89,1.89,0,0,0-1.26.36,2,2,0,0,0-.41,1.46V54a.4.4,0,0,1-.09.27.33.33,0,0,1-.24.1h-1a.34.34,0,0,1-.24-.11.35.35,0,0,1-.1-.26V47.27A3.91,3.91,0,0,1,160,46a2.8,2.8,0,0,1,.62-1,2.54,2.54,0,0,1,1-.66,4.18,4.18,0,0,1,1.44-.23h.42a5.81,5.81,0,0,1,1.45.15,2.15,2.15,0,0,1,.95.52,2.36,2.36,0,0,1,1-.51,5.24,5.24,0,0,1,1.42-.16h.43a4.18,4.18,0,0,1,1.44.23,2.67,2.67,0,0,1,1,.67,2.8,2.8,0,0,1,.61,1,3.89,3.89,0,0,1,.2,1.32Z"/><path class="cls-1" d="M182.12,50a5.5,5.5,0,0,1-.47,2.38,3.49,3.49,0,0,1-1.39,1.57,4.35,4.35,0,0,1-2.26.56A3.85,3.85,0,0,1,175,53.24,4.85,4.85,0,0,1,173.89,50V48.54a4.88,4.88,0,0,1,1.06-3.3A3.84,3.84,0,0,1,178,44a4.66,4.66,0,0,1,1.79.31,3.52,3.52,0,0,1,1.29.91,3.74,3.74,0,0,1,.78,1.43,6.06,6.06,0,0,1,.26,1.86Zm-1.62,0V48.54a3.72,3.72,0,0,0-.62-2.28,2.21,2.21,0,0,0-1.88-.81,2.16,2.16,0,0,0-1.86.81,3.7,3.7,0,0,0-.62,2.28V50c0,2,.83,3.08,2.48,3.08a2.25,2.25,0,0,0,1.88-.8A3.7,3.7,0,0,0,180.5,50Z"/><path class="cls-1" d="M191.74,49.88a6.19,6.19,0,0,1-.43,2.44A3.32,3.32,0,0,1,190,53.9a4.27,4.27,0,0,1-2.25.56,18.61,18.61,0,0,1-3.4-.31A.64.64,0,0,1,184,54a.47.47,0,0,1-.07-.3V40.78a.37.37,0,0,1,.09-.25.34.34,0,0,1,.24-.11h.95a.37.37,0,0,1,.25.1.38.38,0,0,1,.1.26v3.44a11.06,11.06,0,0,1,2.16-.19,4.75,4.75,0,0,1,1.77.3,3.31,3.31,0,0,1,1.26.87,3.53,3.53,0,0,1,.75,1.41,6.74,6.74,0,0,1,.25,2Zm-1.63,0V48.56a4.08,4.08,0,0,0-.54-2.34,2.15,2.15,0,0,0-1.86-.77l-1.19,0a6.66,6.66,0,0,0-1,.11v7.33q1.37.12,2.16.12a2.6,2.6,0,0,0,1.42-.35,2,2,0,0,0,.76-1A5.74,5.74,0,0,0,190.11,49.88Z"/><path class="cls-1" d="M195.43,42.16a.33.33,0,0,1-.11.27.35.35,0,0,1-.26.1h-.94a.38.38,0,0,1-.37-.37V40.68a.4.4,0,0,1,.1-.26.37.37,0,0,1,.27-.11h.94a.37.37,0,0,1,.27.1.36.36,0,0,1,.1.27Zm0,11.8a.38.38,0,0,1-.37.37h-.89a.36.36,0,0,1-.26-.11.33.33,0,0,1-.11-.26V44.53a.35.35,0,0,1,.1-.26.33.33,0,0,1,.27-.11H195a.36.36,0,0,1,.27.1.37.37,0,0,1,.1.27Z"/><path class="cls-1" d="M199.59,54a.4.4,0,0,1-.1.26.3.3,0,0,1-.24.11h-1a.34.34,0,0,1-.24-.11A.39.39,0,0,1,198,54V40.78a.41.41,0,0,1,.08-.25.31.31,0,0,1,.25-.11h1a.33.33,0,0,1,.24.1.38.38,0,0,1,.1.26Z"/><path class="cls-1" d="M203.8,42.16a.33.33,0,0,1-.11.27.35.35,0,0,1-.26.1h-.94a.38.38,0,0,1-.37-.37V40.68a.36.36,0,0,1,.11-.26.33.33,0,0,1,.26-.11h.94a.37.37,0,0,1,.27.1.36.36,0,0,1,.1.27Zm0,11.8a.36.36,0,0,1-.11.26.38.38,0,0,1-.26.11h-.89a.38.38,0,0,1-.37-.37V44.53a.35.35,0,0,1,.1-.26.33.33,0,0,1,.27-.11h.89a.36.36,0,0,1,.27.1.37.37,0,0,1,.1.27Z"/><path class="cls-1" d="M213.63,53.6a.44.44,0,0,1-.07.29.56.56,0,0,1-.31.14,14.35,14.35,0,0,1-3.41.43,4.27,4.27,0,0,1-2.25-.56,3.33,3.33,0,0,1-1.34-1.59,6.22,6.22,0,0,1-.44-2.42V48.6a6.88,6.88,0,0,1,.24-1.89,4.11,4.11,0,0,1,.75-1.44,3.23,3.23,0,0,1,1.25-.93,4.66,4.66,0,0,1,1.79-.31c.38,0,.76,0,1.15,0s.78.09,1.18.16.76.13,1.08.21a.65.65,0,0,1,.31.13.47.47,0,0,1,.07.3ZM212,52.9V45.58a6.1,6.1,0,0,0-.62-.09l-.69-.06-.86,0a2.07,2.07,0,0,0-1.86.81,4.34,4.34,0,0,0-.54,2.38v1.29a4.29,4.29,0,0,0,.55,2.39,2.09,2.09,0,0,0,1.85.82c.29,0,.64,0,1-.05S211.67,53,212,52.9Zm.5-12.85a.22.22,0,0,1-.08.15l-2.09,2.33-.23.23a.34.34,0,0,1-.2.05h-1c-.11,0-.17,0-.17-.13a.25.25,0,0,1,.07-.19l1.82-2.29a1.83,1.83,0,0,1,.23-.24.48.48,0,0,1,.21,0h1.22C212.44,39.92,212.51,40,212.51,40.05Z"/><path class="cls-1" d="M220.75,45.15a.3.3,0,0,1-.08.24.53.53,0,0,1-.31.06,13.75,13.75,0,0,0-2.57.18V54a.39.39,0,0,1-.09.26.3.3,0,0,1-.24.11h-1a.33.33,0,0,1-.23-.11.35.35,0,0,1-.1-.26V45a.47.47,0,0,1,.33-.43,5.37,5.37,0,0,1,1.62-.42,19.42,19.42,0,0,1,2.25-.1.56.56,0,0,1,.3,0c.06,0,.09.11.09.23Z"/><path class="cls-1" d="M224.23,42.16a.37.37,0,0,1-.11.27.35.35,0,0,1-.26.1h-.94a.35.35,0,0,1-.26-.11.33.33,0,0,1-.11-.26V40.68a.35.35,0,0,1,.1-.26.37.37,0,0,1,.27-.11h.94a.34.34,0,0,1,.37.37Zm0,11.8a.33.33,0,0,1-.11.26.36.36,0,0,1-.26.11h-.88a.39.39,0,0,1-.27-.11.36.36,0,0,1-.11-.26V44.53a.36.36,0,0,1,.11-.26.33.33,0,0,1,.27-.11h.88a.34.34,0,0,1,.37.37Z"/><path class="cls-1" d="M234.06,53.6a.44.44,0,0,1-.08.29.53.53,0,0,1-.31.14,14.27,14.27,0,0,1-3.4.43A4.22,4.22,0,0,1,228,53.9a3.35,3.35,0,0,1-1.35-1.59,6.23,6.23,0,0,1-.43-2.42V48.6a6.88,6.88,0,0,1,.24-1.89,3.93,3.93,0,0,1,.74-1.44,3.34,3.34,0,0,1,1.26-.93,4.62,4.62,0,0,1,1.79-.31c.37,0,.75,0,1.14,0s.78.09,1.19.16a10.69,10.69,0,0,1,1.07.21.6.6,0,0,1,.31.13.47.47,0,0,1,.08.3Zm-1.63-.7V45.58a5.4,5.4,0,0,0-.62-.09l-.69-.06-.85,0a2.07,2.07,0,0,0-1.86.81,4.25,4.25,0,0,0-.55,2.38v1.29a4.38,4.38,0,0,0,.55,2.39,2.1,2.1,0,0,0,1.86.82c.29,0,.64,0,1-.05S232.1,53,232.43,52.9Z"/></g></g></svg>