<svg width="44" height="42" viewBox="0 0 44 42" fill="none" xmlns="http://www.w3.org/2000/svg">
<g clip-path="url(#clip0_1545_1353)">
<path d="M11 4.59115V0.918213H25.6667V4.59115" stroke="white" stroke-width="2" stroke-miterlimit="10"/>
<path d="M22 33.0564H16.5V40.4023H22V33.0564Z" stroke="white" stroke-width="2" stroke-miterlimit="10"/>
<path d="M12.8333 16.5282V12.8552H16.5V16.5282" stroke="white" stroke-width="2" stroke-miterlimit="10"/>
<path d="M12.8333 23.8741V20.2012H16.5V23.8741" stroke="white" stroke-width="2" stroke-miterlimit="10"/>
<path d="M6.41666 40.4023H0.916656V11.937H6.41666" stroke="white" stroke-width="2" stroke-miterlimit="10"/>
<path d="M2.75 11.9371V8.26416H6.41667" stroke="white" stroke-width="2" stroke-miterlimit="10"/>
<path d="M32.0742 18.3647H32.0833C34.1 18.3647 35.7408 19.8982 35.7408 22.0285C35.7408 24.1588 34.1092 25.7106 32.0925 25.7106H32.0558C30.0392 25.7106 28.3983 24.168 28.4075 22.0285C28.4075 19.8982 30.0483 18.3647 32.065 18.3647H32.0742Z" stroke="white" stroke-width="2" stroke-miterlimit="10"/>
<path d="M32.0833 11.0188C38.1608 11.0188 43.0833 15.6467 43.0833 21.3581C43.0833 23.8282 42.6983 25.5453 41.2042 27.7857C39.71 30.0262 32.0833 40.4482 32.0833 40.4482C32.0833 40.4482 24.4567 30.0354 22.9625 27.7857C21.4683 25.5361 21.0833 23.8282 21.0833 21.3581C21.0833 15.6467 26.0058 11.0188 32.0833 11.0188V11.0188Z" stroke="white" stroke-width="2" stroke-miterlimit="10"/>
<path d="M28.4167 40.4022H8.25V4.59106H28.4167V9.18223" stroke="white" stroke-width="2" stroke-miterlimit="10"/>
</g>
<defs>
<clipPath id="clip0_1545_1353">
<rect width="44" height="42" fill="white"/>
</clipPath>
</defs>
</svg>
