<svg width="38" height="42" viewBox="0 0 38 42" fill="none" xmlns="http://www.w3.org/2000/svg">
<g clip-path="url(#clip0_1545_1373)">
<path d="M19.0011 29.1625C10.8231 29.1625 4.17004 22.6214 4.17004 14.5812C4.17004 6.54104 10.821 0 19.0011 0C27.1811 0 33.8321 6.54104 33.8321 14.5812C33.8321 22.6214 27.179 29.1625 19.0011 29.1625ZM19.0011 1.44388C11.6321 1.44388 5.63865 7.33846 5.63865 14.5812C5.63865 21.824 11.6342 27.7186 19.0011 27.7186C26.3679 27.7186 32.3635 21.824 32.3635 14.5812C32.3635 7.33846 26.3679 1.44388 19.0011 1.44388Z" fill="white"/>
<path d="M10.3408 15.3021C9.9342 15.3021 9.6076 14.9789 9.6076 14.5812C9.6076 9.48832 13.8209 5.34595 19.0011 5.34595C19.4077 5.34595 19.7343 5.66917 19.7343 6.06682C19.7343 6.46447 19.4056 6.7877 19.0011 6.7877C14.632 6.7877 11.0762 10.2836 11.0762 14.5791C11.0762 14.9789 10.7475 15.3 10.343 15.3L10.3408 15.3021Z" fill="white"/>
<path d="M9.51241 41.9999C9.49727 41.9999 9.48213 41.9999 9.46699 41.9999C9.19014 41.9829 8.94573 41.8128 8.83758 41.5619L6.38485 35.8863H0.733196C0.462834 35.8863 0.2141 35.7396 0.0864889 35.5057C-0.0411222 35.2718 -0.0281448 34.9889 0.121095 34.7657L7.81669 23.3401C8.0438 23.0084 8.50017 22.9169 8.83542 23.1381C9.17283 23.3571 9.26584 23.8058 9.0409 24.1397L2.10015 34.4403H6.87151C7.16566 34.4403 7.4317 34.6147 7.54633 34.8805L9.61407 39.6672L16.5202 27.9546C16.7235 27.6058 17.1734 27.491 17.5238 27.693C17.8742 27.8929 17.9931 28.3352 17.7898 28.6797L10.1461 41.6406C10.0142 41.8638 9.77196 41.9999 9.51025 41.9999H9.51241Z" fill="white"/>
<path d="M28.4876 42C28.2258 42 27.9836 41.8639 27.8517 41.6406L20.208 28.6798C20.0047 28.3353 20.1258 27.893 20.474 27.6931C20.8201 27.4911 21.2721 27.608 21.4776 27.9546L28.3837 39.6673L30.4515 34.8806C30.5661 34.6148 30.8321 34.4404 31.1263 34.4404H35.8955L28.9547 24.1355C28.732 23.8038 28.825 23.3551 29.1602 23.1339C29.4955 22.9149 29.9518 23.0063 30.1789 23.3359L37.8724 34.7615C38.0216 34.9848 38.0346 35.2676 37.907 35.5015C37.7794 35.7354 37.5306 35.8821 37.2603 35.8821H31.6108L29.1581 41.5577C29.0499 41.8108 28.8055 41.9788 28.5287 41.9958C28.5135 41.9958 28.4962 41.9958 28.4832 41.9958L28.4876 42Z" fill="white"/>
</g>
<defs>
<clipPath id="clip0_1545_1373">
<rect width="38" height="42" fill="white"/>
</clipPath>
</defs>
</svg>
