<svg width="22" height="48" viewBox="0 0 22 48" fill="none" xmlns="http://www.w3.org/2000/svg">
<path d="M13 32.08V5C13 2.79 11.21 1 9 1C6.79 1 5 2.79 5 5V32.08C2.61 33.46 1 36.04 1 39C1 43.42 4.58 47 9 47C13.42 47 17 43.42 17 39C17 36.04 15.39 33.46 13 32.08Z" stroke="white" stroke-width="2" stroke-miterlimit="10"/>
<path d="M17 6H22" stroke="white" stroke-width="2" stroke-miterlimit="10"/>
<path d="M17 11H22" stroke="white" stroke-width="2" stroke-miterlimit="10"/>
<path d="M17 16H22" stroke="white" stroke-width="2" stroke-miterlimit="10"/>
<path d="M17 21H22" stroke="white" stroke-width="2" stroke-miterlimit="10"/>
<path d="M17 26H22" stroke="white" stroke-width="2" stroke-miterlimit="10"/>
<path d="M9 11V40" stroke="white" stroke-width="2" stroke-miterlimit="10"/>
</svg>
