<svg width="35" height="41" viewBox="0 0 35 41" fill="none" xmlns="http://www.w3.org/2000/svg">
<g clip-path="url(#clip0_1796_1993)">
<path d="M5.12547 29.0814C6.73208 30.6454 8.60358 31.8736 10.6877 32.7316C12.5263 33.4884 14.4616 33.9264 16.4548 34.0398V38.9656H8.76607C8.18873 38.9656 7.72112 39.4208 7.72112 39.9828C7.72112 40.5448 8.18873 41 8.76607 41H26.2339C26.8113 41 27.2789 40.5448 27.2789 39.9828C27.2789 39.4208 26.8113 38.9656 26.2339 38.9656H18.5447V25.4668L21.9335 23.5666C22.4335 23.2864 22.6054 22.6644 22.3175 22.1776C22.0296 21.6909 21.3906 21.5236 20.8906 21.8038L18.5447 23.119V19.8167C18.5447 19.2547 18.0771 18.7995 17.4997 18.7995C16.9224 18.7995 16.4548 19.2547 16.4548 19.8167V26.1015L14.1089 24.7862C13.6089 24.506 12.9699 24.6733 12.682 25.1601C12.3941 25.6468 12.566 26.2688 13.066 26.5491L16.4548 28.4492V32.0018C12.7322 31.7607 9.26607 30.2349 6.60302 27.6426C3.69232 24.8091 2.08937 21.0424 2.08937 17.0351C2.08937 13.0279 3.69232 9.26115 6.60302 6.42772C9.51373 3.5943 13.3832 2.0339 17.4997 2.0339C21.6163 2.0339 25.4858 3.5943 28.3965 6.42772C31.3072 9.26115 32.9101 13.0279 32.9101 17.0351C32.9101 18.7613 32.6118 20.4535 32.0229 22.0642C31.454 23.621 30.6274 25.0685 29.5658 26.3675C27.4419 28.9659 24.458 30.8274 21.1649 31.6097C20.6043 31.7429 20.2605 32.2932 20.3974 32.839C20.5343 33.3847 21.0996 33.7193 21.6602 33.5861C25.4016 32.6981 28.7904 30.5843 31.2016 27.6344C32.4075 26.1595 33.3464 24.5147 33.9927 22.7462C34.6614 20.9163 35.0005 18.9948 35.0005 17.0357C35.0005 14.7363 34.5376 12.505 33.6248 10.4045C32.7434 8.37567 31.4817 6.55386 29.8751 4.9899C28.2684 3.42595 26.3969 2.19767 24.3128 1.33966C22.1539 0.450622 19.8618 0 17.4997 0C15.1376 0 12.8455 0.450622 10.6877 1.33915C8.60358 2.19716 6.73208 3.42544 5.12547 4.98939C3.51886 6.55335 2.25709 8.37516 1.37567 10.404C0.462912 12.505 0 14.7363 0 17.0351C0 19.334 0.462912 21.5658 1.37567 23.6663C2.25709 25.6951 3.51886 27.5169 5.12547 29.0809V29.0814Z" fill="white"/>
</g>
<defs>
<clipPath id="clip0_1796_1993">
<rect width="35" height="41" fill="white"/>
</clipPath>
</defs>
</svg>
