<svg width="42" height="47" viewBox="0 0 42 47" fill="none" xmlns="http://www.w3.org/2000/svg">
<g clip-path="url(#clip0_1545_1412)">
<path d="M21.001 47C20.9018 47 20.8026 46.9752 20.7116 46.9276L0.33079 36.1482C0.128181 36.0407 0 35.8299 0 35.6004V30.8971C0 30.5539 0.277037 30.2769 0.620232 30.2769C0.963426 30.2769 1.24046 30.5539 1.24046 30.8971V35.2282L21.001 45.681L40.7616 35.2282V30.8971C40.7616 30.5539 41.0387 30.2769 41.3819 30.2769C41.725 30.2769 42.0021 30.5539 42.0021 30.8971V35.6004C42.0021 35.8299 41.876 36.0407 41.6713 36.1482L21.2905 46.9276C21.1995 46.9752 21.1003 47 21.001 47Z" fill="white"/>
<path d="M21.001 42.2968C20.9018 42.2968 20.8026 42.272 20.7116 42.2244L0.33079 31.445C0.128181 31.3375 0 31.1267 0 30.8972C0 30.6677 0.126114 30.4568 0.33079 30.3493L9.87202 25.3028C10.1759 25.1416 10.5501 25.2594 10.7093 25.5613C10.8706 25.8631 10.7548 26.2394 10.4509 26.3985L1.94546 30.8972L20.999 40.9757L40.0525 30.8972L31.547 26.3985C31.2452 26.2394 31.1294 25.8631 31.2886 25.5613C31.4478 25.2594 31.8241 25.1416 32.1259 25.3028L41.6671 30.3514C41.8698 30.4589 41.9979 30.6698 41.9979 30.8993C41.9979 31.1287 41.8718 31.3396 41.6671 31.4471L21.2863 42.2265C21.1954 42.274 21.0961 42.2988 20.9969 42.2988L21.001 42.2968Z" fill="white"/>
<path d="M21.001 37.2503C20.9018 37.2503 20.8026 37.2255 20.7116 37.178L9.87201 31.4451C9.57017 31.2859 9.45439 30.9096 9.61358 30.6078C9.77484 30.306 10.1491 30.1881 10.4509 30.3494L20.999 35.9292L31.547 30.3494C31.8509 30.1881 32.2252 30.3039 32.3843 30.6078C32.5435 30.9096 32.4278 31.2859 32.1259 31.4451L21.2863 37.178C21.1954 37.2255 21.0961 37.2503 20.9969 37.2503H21.001Z" fill="white"/>
<path d="M31.8385 6.97324C31.7414 6.97324 31.6421 6.9505 31.5491 6.90088L21.001 1.321L10.453 6.90088C10.1511 7.06214 9.77484 6.94637 9.61565 6.64246C9.45646 6.34062 9.57224 5.96436 9.87408 5.80517L20.7095 0.0723014C20.8915 -0.0227984 21.1085 -0.0227984 21.2884 0.0723014L32.128 5.80517C32.4298 5.96436 32.5456 6.34062 32.3864 6.64246C32.2748 6.85333 32.0598 6.97324 31.8365 6.97324H31.8385Z" fill="white"/>
<path d="M20.999 37.2503C20.9018 37.2503 20.8026 37.2275 20.7095 37.1779L9.86994 31.445C9.66734 31.3375 9.53915 31.1267 9.53915 30.8972V6.35315C9.53915 6.13607 9.65286 5.93347 9.83893 5.82183C10.025 5.71019 10.2566 5.70192 10.4488 5.80529L21.2884 11.5382C21.5902 11.6973 21.706 12.0736 21.5468 12.3755C21.3876 12.6773 21.0114 12.7951 20.7095 12.6339L10.7817 7.38271V30.523L21.2905 36.0822C21.5923 36.2434 21.7081 36.6176 21.5489 36.9195C21.4373 37.1303 21.2222 37.2503 20.999 37.2503Z" fill="white"/>
<path d="M17.8068 15.9044C17.7097 15.9044 17.6104 15.8816 17.5174 15.832L13.0621 13.4752C12.7602 13.316 12.6444 12.9398 12.8036 12.6379C12.9628 12.3361 13.3391 12.2182 13.641 12.3795L18.0963 14.7363C18.3981 14.8955 18.5139 15.2718 18.3547 15.5736C18.2431 15.7845 18.0281 15.9044 17.8068 15.9044Z" fill="white"/>
<path d="M17.8068 20.1695C17.7097 20.1695 17.6104 20.1468 17.5174 20.0972L13.0621 17.7403C12.7602 17.5811 12.6444 17.2049 12.8036 16.903C12.9628 16.6012 13.3391 16.4834 13.641 16.6446L18.0963 19.0014C18.3981 19.1606 18.5139 19.5369 18.3547 19.8387C18.2431 20.0496 18.0281 20.1695 17.8068 20.1695Z" fill="white"/>
<path d="M17.8068 24.4344C17.7097 24.4344 17.6104 24.4117 17.5174 24.3621L13.0621 22.0052C12.7602 21.846 12.6444 21.4698 12.8036 21.1679C12.9628 20.8661 13.3391 20.7483 13.641 20.9095L18.0963 23.2663C18.3981 23.4255 18.5139 23.8018 18.3547 24.1036C18.2431 24.3145 18.0281 24.4344 17.8068 24.4344Z" fill="white"/>
<path d="M17.8068 28.6974C17.7097 28.6974 17.6104 28.6746 17.5174 28.625L13.0621 26.2682C12.7602 26.109 12.6444 25.7327 12.8036 25.4309C12.9628 25.129 13.3391 25.0112 13.641 25.1725L18.0963 27.5293C18.3981 27.6885 18.5139 28.0647 18.3547 28.3666C18.2431 28.5774 18.0281 28.6974 17.8068 28.6974Z" fill="white"/>
<path d="M21.001 37.2502C20.8894 37.2502 20.7798 37.2212 20.6806 37.1613C20.4945 37.0496 20.3808 36.847 20.3808 36.63V12.0859C20.3808 11.8565 20.5069 11.6456 20.7116 11.5381L31.5512 5.80521C31.7434 5.70391 31.975 5.71011 32.1611 5.82175C32.3471 5.93339 32.4608 6.13599 32.4608 6.35307V30.8971C32.4608 31.1266 32.3347 31.3374 32.13 31.445L21.2905 37.1778C21.1995 37.2254 21.1003 37.2502 21.001 37.2502ZM21.6213 12.4601V35.6004L31.2204 30.5229V7.38263L21.6213 12.4601Z" fill="white"/>
<path d="M24.1932 15.9043C23.9699 15.9043 23.7549 15.7844 23.6453 15.5735C23.484 15.2717 23.5998 14.8954 23.9037 14.7362L28.359 12.3794C28.663 12.2181 29.0372 12.3339 29.1964 12.6378C29.3576 12.9397 29.2418 13.3159 28.9379 13.4751L24.4826 15.8319C24.3896 15.8816 24.2903 15.9043 24.1932 15.9043Z" fill="white"/>
<path d="M24.1932 20.1694C23.9699 20.1694 23.7549 20.0495 23.6453 19.8387C23.484 19.5368 23.5998 19.1605 23.9037 19.0014L28.359 16.6445C28.663 16.4833 29.0372 16.5991 29.1964 16.903C29.3576 17.2048 29.2418 17.5811 28.9379 17.7403L24.4826 20.0971C24.3896 20.1467 24.2903 20.1694 24.1932 20.1694Z" fill="white"/>
<path d="M24.1932 24.4344C23.9699 24.4344 23.7549 24.3145 23.6453 24.1036C23.484 23.8018 23.5998 23.4255 23.9037 23.2663L28.359 20.9095C28.663 20.7483 29.0372 20.8661 29.1964 21.1679C29.3576 21.4698 29.2418 21.846 28.9379 22.0052L24.4826 24.3621C24.3896 24.4117 24.2903 24.4344 24.1932 24.4344Z" fill="white"/>
<path d="M24.4226 35.4391C24.0794 35.4391 23.8024 35.162 23.8024 34.8188V29.1935C23.8024 28.964 23.9285 28.7531 24.1332 28.6456L28.1275 26.5327C28.3198 26.4314 28.5513 26.4376 28.7374 26.5493C28.9235 26.6609 29.0372 26.8635 29.0372 27.0806V32.706C29.0372 33.0492 28.7601 33.3262 28.4169 33.3262C28.0737 33.3262 27.7967 33.0492 27.7967 32.706V28.1102L25.0429 29.5677V34.8188C25.0429 35.162 24.7658 35.4391 24.4226 35.4391Z" fill="white"/>
</g>
<defs>
<clipPath id="clip0_1545_1412">
<rect width="42" height="47" fill="white"/>
</clipPath>
</defs>
</svg>
