<svg width="150" height="150" viewBox="0 0 150 150" fill="none" xmlns="http://www.w3.org/2000/svg">
<rect width="150" height="150" fill="white"/>
<rect width="150" height="150" fill="#395222"/>
<g clip-path="url(#clip0_1950_2013)">
<path d="M59.9219 106.001C60.6569 105.687 61.1963 105.343 61.552 104.964C61.9076 104.585 62.1092 104.07 62.1625 103.418V80.39C62.1862 80.0761 62.0677 79.4483 61.8128 78.5066C61.552 77.5648 60.9236 76.5698 59.9278 75.5273C60.7399 76.1315 61.4512 76.5757 62.0677 76.86C62.6841 77.1502 63.3302 77.2924 64.0119 77.2924H64.3261C65.0078 77.2154 65.6242 77.0318 66.1696 76.7415C66.7208 76.4513 67.3669 76.1789 68.1138 75.9183C68.8607 75.6576 69.8743 75.5273 71.1547 75.5273C73.745 75.5273 75.9501 76.4335 77.764 78.2519C79.5837 80.0702 80.4906 82.2617 80.4906 84.8204C80.4906 87.3791 79.5837 89.5706 77.764 91.3889C75.9442 93.2072 73.7391 94.1134 71.1547 94.1134C69.8447 94.1134 68.671 93.8587 67.6218 93.3494C66.5726 92.84 65.6835 92.1411 64.9544 91.2527V103.406C64.9544 104.058 65.1441 104.573 65.5235 104.952C65.9028 105.331 66.46 105.675 67.1891 105.989H59.9278L59.9219 106.001ZM71.1488 93.5685C73.0811 93.3849 74.6045 92.4905 75.7189 90.8795C76.8274 89.2744 77.3846 87.2547 77.3846 84.8204C77.3846 82.3861 76.7918 80.396 75.6004 78.7612C74.4089 77.1265 72.9389 76.2322 71.1843 76.0722H70.7931C69.7202 76.0722 68.6592 76.3625 67.6159 76.937C66.5667 77.5115 65.6776 78.3644 64.9485 79.4838V90.2695C65.6776 91.3948 66.5726 92.224 67.6159 92.7571C68.6592 93.2961 69.6965 93.5626 70.716 93.5626H71.1488V93.5685Z" fill="white"/>
<path d="M103.406 94.1133C102.908 94.1133 102.44 93.9297 101.995 93.5625C101.551 93.1952 101.29 92.4786 101.213 91.4065C100.845 91.827 100.549 92.1291 100.312 92.3068C99.7903 92.8576 99.1442 93.2959 98.3914 93.6217C97.6327 93.9474 96.7436 94.1133 95.724 94.1133C95.3328 94.1133 94.9119 94.0896 94.4674 94.0363C92.9203 93.7994 91.6814 93.2426 90.7389 92.3483C89.7964 91.4598 89.3281 90.4411 89.3281 89.292C89.3281 89.0314 89.3518 88.7531 89.4052 88.4688C89.9031 86.6623 90.9049 85.4125 92.4105 84.7018C93.9161 83.997 95.4098 83.5646 96.9036 83.4106C97.5023 83.3573 98.2492 83.2151 99.1383 82.9782C100.027 82.7413 100.721 82.2734 101.219 81.5686C101.426 81.231 101.533 80.7868 101.533 80.2359C101.533 79.6851 101.403 79.0395 101.142 78.3761C100.881 77.7128 100.454 77.1442 99.8674 76.6703C99.2806 76.2024 98.4981 75.9655 97.5319 75.9655H97.3778C96.8799 75.9892 96.3108 76.1728 95.6707 76.5163C95.0305 76.8599 94.4555 77.4403 93.9457 78.2636C93.436 79.0869 93.1811 80.2418 93.1811 81.7344V82.0069L90.235 80.7927C90.8634 78.8855 91.9126 77.5351 93.3945 76.7355C94.8704 75.9359 96.2101 75.5391 97.4193 75.5391H97.8105C99.2509 75.5391 100.442 75.7997 101.379 76.3209C102.321 76.8421 102.95 77.5114 103.264 78.3228C103.418 78.6604 103.501 79.0158 103.501 79.383C103.501 80.1945 103.104 80.9822 102.304 81.7581C101.503 82.5281 100.164 83.2033 98.2788 83.7778C97.0222 84.1154 95.8188 84.607 94.6689 85.2467C93.5189 85.8864 92.7958 86.9643 92.5112 88.4806V89.0314C92.5112 89.529 92.5942 90.1094 92.7661 90.7787C92.938 91.4421 93.2818 92.0403 93.8035 92.5615C94.3251 93.0827 95.072 93.3966 96.0441 93.5032H96.4353C98.0299 93.5032 99.4169 92.8103 100.596 91.4243C101.746 90.1449 102.612 89.1381 103.187 88.4036L104.052 87.4619V89.7777C104.052 90.3819 104.094 91.1222 104.171 92.0107C104.432 92.7925 104.888 93.1893 105.546 93.1893C104.787 93.8171 104.082 94.1311 103.424 94.1311L103.406 94.1133Z" fill="white"/>
<path d="M123.342 94.1115H106.857L119.572 75.9934H110.704C110.153 75.9697 109.578 76.1888 108.98 76.6567C108.381 77.1306 107.907 78.019 107.569 79.322V75.5195H123.342L110.627 93.6732H119.614C120.349 93.6732 121.072 93.3179 121.789 92.613C122.506 91.9082 123.022 90.7592 123.336 89.16V94.0997L123.342 94.1115Z" fill="white"/>
<path d="M138.877 94.1133C138.379 94.1133 137.911 93.9297 137.466 93.5625C137.022 93.1952 136.761 92.4786 136.684 91.4065C136.316 91.827 136.02 92.1291 135.783 92.3068C135.261 92.8576 134.615 93.2959 133.862 93.6217C133.103 93.9474 132.214 94.1133 131.195 94.1133C130.803 94.1133 130.383 94.0896 129.938 94.0363C128.391 93.7994 127.152 93.2426 126.21 92.3483C125.267 91.4598 124.799 90.4411 124.799 89.292C124.799 89.0314 124.823 88.7531 124.876 88.4688C125.374 86.6623 126.376 85.4125 127.881 84.7018C129.387 83.997 130.881 83.5646 132.374 83.4106C132.973 83.3573 133.72 83.2151 134.609 82.9782C135.498 82.7413 136.192 82.2734 136.69 81.5686C136.897 81.231 137.004 80.7868 137.004 80.2359C137.004 79.6851 136.873 79.0395 136.613 78.3761C136.352 77.7128 135.925 77.1442 135.338 76.6703C134.751 76.2024 133.969 75.9655 133.003 75.9655H132.849C132.351 75.9892 131.782 76.1728 131.141 76.5163C130.501 76.8599 129.926 77.4403 129.416 78.2636C128.907 79.0869 128.652 80.2418 128.652 81.7344V82.0069L125.706 80.7927C126.334 78.8855 127.383 77.5351 128.865 76.7355C130.341 75.9359 131.681 75.5391 132.89 75.5391H133.281C134.722 75.5391 135.913 75.7997 136.85 76.3209C137.792 76.8421 138.42 77.5114 138.735 78.3228C138.889 78.6604 138.972 79.0158 138.972 79.383C138.972 80.1945 138.575 80.9822 137.774 81.7581C136.974 82.5281 135.634 83.2033 133.75 83.7778C132.493 84.1154 131.29 84.607 130.14 85.2467C128.99 85.8864 128.266 86.9643 127.982 88.4806V89.0314C127.982 89.529 128.065 90.1094 128.237 90.7787C128.409 91.4421 128.753 92.0403 129.274 92.5615C129.796 93.0827 130.543 93.3966 131.515 93.5032H131.906C133.501 93.5032 134.888 92.8103 136.067 91.4243C137.217 90.1449 138.083 89.1381 138.658 88.4036L139.523 87.4619V89.7777C139.523 90.3819 139.564 91.1222 139.642 92.0107C139.902 92.7925 140.359 93.1893 141.017 93.1893C140.258 93.8171 139.553 94.1311 138.895 94.1311L138.877 94.1133Z" fill="white"/>
<path d="M29.7871 69.315C30.5458 69.0011 31.109 68.6576 31.4765 68.2785C31.844 67.8995 32.0277 67.3842 32.0277 66.7326V54.336C32.0277 53.6845 31.844 53.1751 31.4765 52.8079C31.109 52.4407 30.5458 52.1149 29.7871 51.8247C32.2174 51.5345 33.9068 51.1732 34.8493 50.729V53.7082C35.0567 53.4239 35.4065 53.0448 35.8925 52.571C36.3727 52.1031 37.001 51.6707 37.7775 51.2739C38.5481 50.883 39.4432 50.6875 40.4686 50.6875L41.0199 50.729C42.1699 50.8593 43.0886 51.1554 43.7644 51.6115C44.4461 52.0675 44.8906 52.5295 45.0981 53.0034L42.5492 55.3547C42.4959 54.336 42.3181 53.5542 42.0217 53.0211C41.7194 52.4881 41.34 52.1268 40.8836 51.9432C40.4271 51.7595 39.9767 51.6707 39.5321 51.6707C39.0342 51.6707 38.6133 51.724 38.2754 51.8306C37.4396 52.1208 36.7046 52.5473 36.0763 53.1218C35.448 53.6963 35.039 54.1939 34.8611 54.6144V66.7326C34.8611 67.3842 35.0449 67.9054 35.4124 68.2785C35.7799 68.6576 36.3253 69.0011 37.0603 69.315H29.799H29.7871Z" fill="white"/>
<path d="M54.6114 69.3126C52.0447 69.3126 49.8515 68.4064 48.0199 66.5881C46.1882 64.7698 45.2754 62.5842 45.2754 60.0196C45.2754 57.455 46.1882 55.2694 48.0199 53.4511C49.8515 51.6328 52.0506 50.7266 54.6114 50.7266C56.8639 50.7266 58.6896 51.4788 60.1063 52.9832C61.517 54.4876 62.2224 56.1934 62.2224 58.1006L48.4882 58.1361C48.4111 58.7106 48.3696 59.3385 48.3696 60.0196C48.3696 62.4243 48.9624 64.4499 50.1538 66.0965C51.3453 67.7431 52.8153 68.6434 54.5699 68.8033H54.9255C55.9688 68.8033 56.9883 68.5486 57.9664 68.0392C58.9444 67.5298 59.8039 66.7776 60.539 65.7826L60.8531 66.2505C60.0173 67.2455 59.2053 67.9563 58.4228 68.3887C57.6404 68.821 56.9231 69.0816 56.283 69.1705C55.6428 69.2593 55.0856 69.3067 54.6173 69.3067L54.6114 69.3126ZM59.4364 57.6682V57.3188C59.4364 56.9811 59.3949 56.4777 59.3179 55.8084C59.2408 55.145 59.0452 54.458 58.7311 53.7472C58.4169 53.0365 57.9308 52.4383 57.2788 51.9408C56.6268 51.4432 55.7198 51.1945 54.5699 51.1945C52.9753 51.1945 51.6594 51.8105 50.628 53.0365C49.5907 54.2685 48.909 55.8084 48.5652 57.6623H59.4364V57.6682Z" fill="white"/>
<path d="M72.9922 69.3126C70.4256 69.3126 68.2324 68.4064 66.4007 66.5881C64.5691 64.7698 63.6562 62.5842 63.6562 60.0196C63.6562 57.455 64.5691 55.2694 66.4007 53.4511C68.2324 51.6328 70.4315 50.7266 72.9922 50.7266C75.2447 50.7266 77.0704 51.4788 78.4871 52.9832C79.8979 54.4876 80.6033 56.1934 80.6033 58.1006L66.869 58.1361C66.792 58.7106 66.7505 59.3385 66.7505 60.0196C66.7505 62.4243 67.3432 64.4499 68.5347 66.0965C69.7261 67.7431 71.1962 68.6434 72.9507 68.8033H73.3064C74.3496 68.8033 75.3692 68.5486 76.3472 68.0392C77.3253 67.5298 78.1848 66.7776 78.9198 65.7826L79.234 66.2505C78.3982 67.2455 77.5861 67.9563 76.8037 68.3887C76.0212 68.821 75.304 69.0816 74.6638 69.1705C74.0236 69.2593 73.4664 69.3067 72.9981 69.3067L72.9922 69.3126ZM77.8173 57.6682V57.3188C77.8173 56.9811 77.7758 56.4777 77.6987 55.8084C77.6217 55.1391 77.4261 54.458 77.1119 53.7472C76.7977 53.0424 76.3117 52.4383 75.6596 51.9408C75.0076 51.4432 74.1007 51.1945 72.9507 51.1945C71.3562 51.1945 70.0403 51.8105 69.0089 53.0365C67.9715 54.2685 67.2899 55.8084 66.9461 57.6623H77.8173V57.6682Z" fill="white"/>
<path d="M95.2385 69.3145C95.9972 69.0006 96.5603 68.6571 96.9219 68.278C97.2894 67.899 97.4732 67.3837 97.4732 66.7321V60.0274C97.4732 58.4045 97.3606 56.9475 97.1412 55.6563C96.9219 54.3592 96.4418 53.3286 95.7068 52.5586C94.9717 51.7887 93.8751 51.3622 92.411 51.2852H92.2925C91.2196 51.2852 90.1348 51.5577 89.0323 52.1085C87.9357 52.6593 86.9932 53.5181 86.2048 54.6968L86.1633 91.5373C86.1633 92.1888 86.353 92.71 86.7324 93.0831C87.1117 93.4622 87.6689 93.8057 88.398 94.1197H81.1367C81.8658 93.8057 82.4171 93.4622 82.7846 93.0831C83.1521 92.7041 83.3359 92.1888 83.3359 91.5373L83.3774 54.3414C83.3774 53.6899 83.1936 53.1805 82.8261 52.8133C82.4586 52.4461 81.8955 52.1203 81.1367 51.8301C83.567 51.5399 85.2564 51.1786 86.1989 50.7344V53.7551C87.6097 51.8716 89.6784 50.8647 92.3992 50.7344H92.7548C94.7702 50.7344 96.3173 51.1608 97.4021 52.0078C98.4868 52.8607 99.2337 53.986 99.6427 55.4016C100.046 56.8113 100.247 58.3572 100.247 60.0274V66.7321C100.247 67.3837 100.437 67.9049 100.816 68.278C101.196 68.6571 101.753 69.0006 102.482 69.3145H95.2207H95.2385Z" fill="white"/>
<path d="M18.6364 84.0556C16.9115 84.0556 15.234 83.6292 13.6158 82.7822C11.9916 81.9293 10.9187 80.6973 10.3971 79.0745C10.1363 78.263 10.0059 77.4516 10.0059 76.6402C10.0059 75.5444 10.3141 74.5079 10.9306 73.5425C11.5411 72.577 12.5725 71.7893 14.0129 71.1911C15.8208 70.587 17.8777 70.202 20.1954 70.0361C22.5131 69.8644 24.5344 69.3372 26.2593 68.4488C26.941 68.0579 27.2789 67.5603 27.2789 66.9562C27.2789 66.3047 26.7691 65.5169 25.7496 64.6048C24.2025 65.7006 22.4123 66.2514 20.3732 66.2514C18.3341 66.2514 16.5796 65.7183 15.0384 64.6463C12.7622 63.053 11.6241 60.9978 11.6241 58.4924C11.6241 56.3483 12.4777 54.5181 14.1907 53.0018C15.9038 51.4856 17.9666 50.7274 20.3732 50.7274H21.0431C22.0093 50.7274 22.7206 50.4195 23.1829 49.8035C23.6393 49.1875 23.9357 48.4827 24.0661 47.689C24.1965 46.8894 24.2617 46.2201 24.2617 45.6693V45L27.3204 45.9417C27.267 46.4926 26.8758 47.2862 26.1408 48.3346C25.4058 49.3829 24.2025 50.2595 22.5309 50.9644C24.4692 51.4382 26.0519 52.3503 27.2789 53.7067C28.5059 55.0689 29.1224 56.6622 29.1224 58.4924C29.1224 60.7905 28.1265 62.7391 26.1408 64.3324C26.4016 64.5397 26.7395 64.8536 27.1603 65.2741C27.5812 65.6946 27.9724 66.1981 28.3399 66.7844C28.7074 67.3708 28.8912 67.969 28.8912 68.5672C28.8912 69.1655 28.6126 69.7992 28.0673 70.3915C27.5219 70.9838 26.5498 71.4991 25.1627 71.9611C23.7757 72.4171 21.8492 72.7666 19.3952 73.0035C16.6507 73.2404 14.5405 73.7557 13.0764 74.5494C11.6122 75.343 10.8772 76.5039 10.8772 78.0202L10.9543 78.802C11.1143 79.7675 11.6656 80.567 12.6199 81.1949C13.5743 81.8227 14.8783 82.1366 16.5262 82.1366C17.362 82.1366 18.3045 82.03 19.3537 81.8227C21.4698 81.3252 23.2837 80.4664 24.7893 79.2522C26.2949 78.038 27.842 76.7408 29.4425 75.3667C31.0429 73.9926 33.0583 72.808 35.5064 71.8011C37.9545 70.7943 41.1791 70.2671 45.1802 70.2138H45.2988C47.2608 70.2138 49.3592 70.5336 51.5998 71.1733C53.8405 71.813 56.0633 72.8258 58.2743 74.2118C60.4853 75.5977 62.56 77.4279 64.4924 79.7023L62.1747 82.7585C60.841 80.3538 59.4776 78.3815 58.0965 76.8356C56.7094 75.2957 54.9371 73.9215 52.7794 72.7192C50.6218 71.5168 48.0374 70.8476 45.0261 70.7232H44.5579C42.1275 70.7232 40.0529 71.12 38.3398 71.9196C36.6267 72.7133 35.0915 73.7142 33.7281 74.9166C32.3707 76.1189 31.0429 77.3509 29.7448 78.6243C28.4466 79.8978 27.0359 81.0113 25.5065 81.9767C23.9772 82.9421 22.1752 83.5996 20.1124 83.9372C19.6441 84.0142 19.1581 84.0556 18.6602 84.0556H18.6364ZM20.3614 65.7835C21.9322 65.7835 23.2659 65.0727 24.3684 63.6453C25.465 62.2179 26.0163 60.5002 26.0163 58.4865C26.0163 56.4727 25.465 54.7136 24.3684 53.2921C23.2718 51.8646 21.9322 51.1539 20.3614 51.1539C18.7906 51.1539 17.4569 51.8706 16.3602 53.2921C15.2636 54.7195 14.7124 56.449 14.7124 58.4865C14.7124 60.5239 15.2636 62.2179 16.3602 63.6453C17.4569 65.0727 18.7906 65.7835 20.3614 65.7835Z" fill="white"/>
</g>
<defs>
<clipPath id="clip0_1950_2013">
<rect width="131" height="61" fill="white" transform="translate(10 45)"/>
</clipPath>
</defs>
</svg>
